<svg xmlns="http://www.w3.org/2000/svg" width="100%" height="100%" viewBox="0 0 586 512" version="1.1" preserveAspectRatio="xMidYMid meet">
<g id="surface1">
<path style=" stroke:none;fill-rule:nonzero;fill:rgb(95.294118%,22.352941%,24.313726%);fill-opacity:1;" d="M 0 0 C 193.378906 0 386.761719 0 586 0 C 586 168.960938 586 337.921875 586 512 C 392.621094 512 199.238281 512 0 512 C 0 343.039062 0 174.078125 0 0 Z M 0 0 " />
<path style=" stroke:none;fill-rule:nonzero;fill:rgb(14.509805%,14.509805%,14.509805%);fill-opacity:1;" d="M 146.773438 88.519531 C 148.089844 88.515625 149.40625 88.511719 150.722656 88.507812 C 154.304688 88.492188 157.886719 88.5 161.46875 88.507812 C 165.347656 88.515625 169.222656 88.503906 173.097656 88.496094 C 180.679688 88.484375 188.261719 88.488281 195.839844 88.496094 C 202.003906 88.503906 208.167969 88.503906 214.332031 88.5 C 215.210938 88.5 216.089844 88.5 216.996094 88.5 C 218.78125 88.496094 220.570312 88.496094 222.355469 88.496094 C 239.085938 88.488281 255.8125 88.496094 272.542969 88.511719 C 286.878906 88.527344 301.214844 88.523438 315.550781 88.511719 C 332.21875 88.492188 348.890625 88.488281 365.5625 88.496094 C 367.34375 88.496094 369.121094 88.5 370.902344 88.5 C 371.777344 88.5 372.652344 88.5 373.554688 88.5 C 379.707031 88.503906 385.859375 88.5 392.011719 88.492188 C 399.515625 88.484375 407.019531 88.484375 414.523438 88.503906 C 418.347656 88.511719 422.171875 88.511719 425.996094 88.503906 C 429.503906 88.496094 433.011719 88.5 436.519531 88.515625 C 437.78125 88.519531 439.042969 88.515625 440.304688 88.511719 C 458.457031 88.410156 474.453125 94.074219 487.757812 106.683594 C 501.875 121.445312 506.449219 140.09375 506.449219 160.0625 C 506.449219 160.945312 506.453125 161.828125 506.457031 162.738281 C 506.464844 165.683594 506.46875 168.625 506.46875 171.570312 C 506.476562 173.6875 506.480469 175.804688 506.484375 177.921875 C 506.5 184.257812 506.507812 190.597656 506.515625 196.9375 C 506.519531 199.929688 506.523438 202.921875 506.527344 205.914062 C 506.539062 215.875 506.550781 225.832031 506.554688 235.792969 C 506.558594 238.371094 506.558594 240.953125 506.5625 243.53125 C 506.5625 244.171875 506.5625 244.8125 506.5625 245.472656 C 506.566406 255.847656 506.585938 266.226562 506.613281 276.601562 C 506.636719 287.28125 506.652344 297.957031 506.652344 308.632812 C 506.65625 314.621094 506.664062 320.605469 506.683594 326.589844 C 506.699219 331.6875 506.703125 336.785156 506.699219 341.882812 C 506.695312 344.480469 506.695312 347.074219 506.710938 349.671875 C 506.8125 371.226562 503.359375 389.417969 488.191406 405.605469 C 481.511719 412.050781 473.566406 415.992188 464.96875 419.257812 C 464.410156 419.5 463.851562 419.746094 463.273438 419.996094 C 454.40625 423.296875 444.933594 423.421875 435.605469 423.375 C 434.3125 423.378906 433.019531 423.382812 431.726562 423.386719 C 428.210938 423.394531 424.691406 423.386719 421.171875 423.378906 C 417.367188 423.371094 413.558594 423.378906 409.75 423.382812 C 402.304688 423.390625 394.863281 423.386719 387.417969 423.375 C 378.742188 423.367188 370.0625 423.367188 361.386719 423.367188 C 345.902344 423.371094 330.417969 423.363281 314.933594 423.347656 C 299.921875 423.332031 284.910156 423.328125 269.898438 423.332031 C 253.53125 423.335938 237.164062 423.335938 220.796875 423.328125 C 219.050781 423.328125 217.304688 423.324219 215.558594 423.324219 C 214.703125 423.324219 213.84375 423.324219 212.957031 423.324219 C 206.914062 423.320312 200.871094 423.320312 194.828125 423.320312 C 187.460938 423.324219 180.097656 423.320312 172.730469 423.308594 C 168.976562 423.304688 165.21875 423.300781 161.464844 423.304688 C 158.023438 423.304688 154.582031 423.300781 151.140625 423.292969 C 149.898438 423.289062 148.65625 423.292969 147.414062 423.292969 C 129.0625 423.335938 110.90625 419.300781 97.285156 406.226562 C 90.523438 399.050781 85.765625 390.449219 82.441406 381.222656 C 82.257812 380.71875 82.078125 380.214844 81.886719 379.699219 C 79.28125 372.011719 78.671875 364.179688 78.695312 356.113281 C 78.691406 355.203125 78.6875 354.292969 78.683594 353.355469 C 78.675781 350.859375 78.675781 348.359375 78.675781 345.859375 C 78.675781 343.15625 78.667969 340.449219 78.660156 337.742188 C 78.648438 332.453125 78.644531 327.164062 78.644531 321.875 C 78.644531 317.570312 78.640625 313.265625 78.632812 308.960938 C 78.621094 296.738281 78.613281 284.511719 78.617188 272.285156 C 78.617188 271.625 78.617188 270.96875 78.617188 270.289062 C 78.617188 269.632812 78.617188 268.972656 78.617188 268.296875 C 78.617188 257.625 78.601562 246.957031 78.578125 236.285156 C 78.558594 225.308594 78.546875 214.328125 78.546875 203.347656 C 78.550781 197.195312 78.546875 191.039062 78.527344 184.886719 C 78.515625 179.644531 78.511719 174.40625 78.523438 169.164062 C 78.527344 166.496094 78.527344 163.828125 78.511719 161.160156 C 78.425781 139.71875 81.824219 123.285156 97.140625 107.160156 C 111.371094 93.652344 127.511719 88.40625 146.773438 88.519531 Z M 146.773438 88.519531 " />
<path style=" stroke:none;fill-rule:nonzero;fill:rgb(99.215686%,98.431373%,98.431373%);fill-opacity:1;" d="M 166.046875 58.730469 C 169.730469 58.734375 173.414062 58.730469 177.09375 58.722656 C 184.285156 58.71875 191.476562 58.722656 198.664062 58.730469 C 207.054688 58.742188 215.445312 58.742188 223.832031 58.738281 C 238.808594 58.738281 253.785156 58.746094 268.761719 58.761719 C 283.265625 58.773438 297.769531 58.78125 312.273438 58.777344 C 328.105469 58.769531 343.9375 58.773438 359.769531 58.78125 C 361.460938 58.78125 363.148438 58.78125 364.839844 58.78125 C 366.085938 58.785156 366.085938 58.785156 367.359375 58.785156 C 373.195312 58.789062 379.03125 58.785156 384.871094 58.785156 C 391.988281 58.785156 399.105469 58.789062 406.222656 58.800781 C 409.851562 58.804688 413.476562 58.808594 417.101562 58.804688 C 420.429688 58.800781 423.757812 58.804688 427.085938 58.816406 C 428.28125 58.816406 429.476562 58.816406 430.671875 58.8125 C 443.6875 58.78125 456.234375 60.148438 468.800781 63.617188 C 470.214844 64.003906 470.214844 64.003906 471.65625 64.398438 C 484.402344 68.265625 495.535156 74.871094 505.570312 83.542969 C 506.316406 84.167969 507.0625 84.789062 507.832031 85.429688 C 519.484375 95.496094 528.003906 109.40625 532.378906 124.167969 C 532.636719 124.980469 532.894531 125.792969 533.15625 126.628906 C 536.046875 137.019531 535.878906 147.347656 535.832031 158.066406 C 535.824219 160.867188 535.832031 163.667969 535.839844 166.46875 C 535.851562 171.941406 535.84375 177.414062 535.832031 182.882812 C 535.820312 189.273438 535.824219 195.660156 535.824219 202.050781 C 535.832031 213.457031 535.820312 224.867188 535.800781 236.277344 C 535.78125 247.316406 535.777344 258.351562 535.785156 269.390625 C 535.792969 281.445312 535.796875 293.5 535.785156 305.554688 C 535.78125 306.84375 535.78125 308.132812 535.78125 309.421875 C 535.78125 310.058594 535.78125 310.691406 535.777344 311.34375 C 535.773438 315.78125 535.777344 320.222656 535.78125 324.660156 C 535.785156 330.082031 535.777344 335.503906 535.765625 340.921875 C 535.757812 343.683594 535.753906 346.441406 535.757812 349.199219 C 535.816406 379.050781 529.777344 405.097656 508.511719 427.117188 C 498.722656 436.585938 486.632812 442.542969 474.160156 447.617188 C 473.550781 447.867188 472.941406 448.121094 472.3125 448.378906 C 462.128906 452.175781 451.128906 452.554688 440.402344 452.507812 C 439.058594 452.511719 437.710938 452.515625 436.367188 452.519531 C 432.707031 452.527344 429.050781 452.523438 425.390625 452.515625 C 421.429688 452.511719 417.46875 452.519531 413.507812 452.523438 C 405.765625 452.535156 398.019531 452.535156 390.277344 452.527344 C 383.980469 452.519531 377.683594 452.519531 371.386719 452.523438 C 370.488281 452.523438 369.589844 452.523438 368.667969 452.523438 C 366.839844 452.523438 365.015625 452.527344 363.191406 452.527344 C 346.101562 452.53125 329.015625 452.527344 311.925781 452.511719 C 297.28125 452.503906 282.636719 452.503906 267.992188 452.515625 C 250.960938 452.527344 233.929688 452.53125 216.898438 452.527344 C 215.082031 452.523438 213.261719 452.523438 211.445312 452.523438 C 210.550781 452.523438 209.65625 452.523438 208.734375 452.523438 C 202.449219 452.519531 196.164062 452.523438 189.878906 452.527344 C 182.214844 452.535156 174.550781 452.535156 166.886719 452.519531 C 162.980469 452.515625 159.074219 452.511719 155.164062 452.519531 C 151.582031 452.527344 148 452.523438 144.417969 452.511719 C 143.128906 452.507812 141.839844 452.511719 140.550781 452.515625 C 115.5625 452.617188 94.6875 443.222656 76.601562 426.15625 C 76.082031 425.6875 75.566406 425.21875 75.03125 424.734375 C 61.421875 411.9375 50.425781 390.976562 49.71875 372.125 C 49.691406 369.703125 49.683594 367.28125 49.6875 364.859375 C 49.6875 363.929688 49.683594 362.996094 49.683594 362.035156 C 49.679688 359.457031 49.679688 356.875 49.679688 354.296875 C 49.679688 351.511719 49.675781 348.726562 49.671875 345.9375 C 49.664062 340.484375 49.664062 335.027344 49.664062 329.570312 C 49.664062 325.132812 49.660156 320.691406 49.660156 316.253906 C 49.652344 303.65625 49.648438 291.0625 49.648438 278.464844 C 49.648438 277.785156 49.648438 277.105469 49.648438 276.40625 C 49.648438 275.726562 49.648438 275.046875 49.648438 274.347656 C 49.648438 263.34375 49.640625 252.34375 49.632812 241.339844 C 49.621094 230.03125 49.613281 218.722656 49.617188 207.414062 C 49.617188 201.066406 49.613281 194.722656 49.605469 188.378906 C 49.597656 182.972656 49.597656 177.570312 49.601562 172.164062 C 49.605469 169.410156 49.605469 166.65625 49.597656 163.902344 C 49.527344 132.582031 56.292969 107.242188 78.5625 84.3125 C 102.5 60.398438 134.128906 58.648438 166.046875 58.730469 Z M 114.519531 94.945312 C 114.007812 95.214844 113.5 95.480469 112.972656 95.757812 C 109.246094 97.75 105.839844 99.921875 102.644531 102.707031 C 101.730469 103.472656 101.730469 103.472656 100.796875 104.253906 C 91.273438 112.472656 83.195312 123.1875 80.429688 135.664062 C 80.308594 136.121094 80.1875 136.574219 80.0625 137.042969 C 78.808594 141.984375 78.683594 146.703125 78.699219 151.78125 C 78.695312 152.691406 78.695312 153.601562 78.691406 154.535156 C 78.683594 157.042969 78.683594 159.546875 78.6875 162.050781 C 78.691406 164.761719 78.683594 167.46875 78.675781 170.175781 C 78.667969 175.476562 78.664062 180.777344 78.667969 186.082031 C 78.667969 190.390625 78.667969 194.703125 78.664062 199.015625 C 78.664062 199.632812 78.664062 200.246094 78.664062 200.878906 C 78.664062 202.128906 78.660156 203.378906 78.660156 204.628906 C 78.652344 216.332031 78.652344 228.039062 78.660156 239.746094 C 78.664062 250.4375 78.652344 261.125 78.640625 271.816406 C 78.625 282.808594 78.617188 293.804688 78.621094 304.796875 C 78.621094 310.964844 78.621094 317.128906 78.609375 323.292969 C 78.601562 328.542969 78.597656 333.792969 78.609375 339.046875 C 78.613281 341.71875 78.613281 344.394531 78.605469 347.070312 C 78.542969 368.898438 81.457031 389.703125 97.285156 406.226562 C 112.070312 419.613281 129.445312 423.210938 148.960938 423.199219 C 150.25 423.199219 151.535156 423.203125 152.820312 423.203125 C 156.34375 423.210938 159.871094 423.210938 163.394531 423.210938 C 167.199219 423.214844 171.003906 423.21875 174.808594 423.226562 C 183.125 423.234375 191.441406 423.238281 199.753906 423.242188 C 204.949219 423.246094 210.148438 423.25 215.34375 423.253906 C 229.738281 423.261719 244.132812 423.269531 258.53125 423.273438 C 259.449219 423.273438 260.371094 423.273438 261.320312 423.273438 C 262.242188 423.273438 263.164062 423.273438 264.117188 423.273438 C 265.984375 423.273438 267.855469 423.273438 269.726562 423.273438 C 270.652344 423.273438 271.582031 423.273438 272.535156 423.273438 C 287.5625 423.277344 302.585938 423.289062 317.613281 423.308594 C 333.050781 423.328125 348.488281 423.335938 363.929688 423.335938 C 372.59375 423.339844 381.253906 423.34375 389.917969 423.355469 C 397.296875 423.367188 404.671875 423.371094 412.050781 423.367188 C 415.8125 423.363281 419.574219 423.363281 423.332031 423.375 C 426.78125 423.382812 430.234375 423.382812 433.683594 423.375 C 434.921875 423.371094 436.164062 423.375 437.40625 423.382812 C 456.082031 423.476562 473.886719 418.84375 487.769531 405.640625 C 488.332031 405.074219 488.898438 404.511719 489.480469 403.929688 C 489.960938 403.457031 490.441406 402.988281 490.933594 402.503906 C 501.933594 390.875 506.59375 374.492188 506.527344 358.824219 C 506.53125 357.5 506.53125 357.5 506.535156 356.144531 C 506.542969 353.199219 506.539062 350.25 506.53125 347.304688 C 506.535156 345.183594 506.539062 343.066406 506.539062 340.945312 C 506.546875 335.796875 506.546875 330.644531 506.542969 325.496094 C 506.539062 321.304688 506.539062 317.113281 506.539062 312.921875 C 506.539062 312.328125 506.539062 311.730469 506.539062 311.113281 C 506.539062 309.898438 506.542969 308.683594 506.542969 307.46875 C 506.546875 296.09375 506.542969 284.714844 506.53125 273.339844 C 506.527344 263.597656 506.527344 253.855469 506.535156 244.113281 C 506.542969 232.78125 506.546875 221.453125 506.542969 210.121094 C 506.539062 208.910156 506.539062 207.699219 506.539062 206.488281 C 506.539062 205.890625 506.539062 205.296875 506.539062 204.683594 C 506.539062 200.503906 506.539062 196.324219 506.542969 192.144531 C 506.546875 187.042969 506.546875 181.941406 506.539062 176.839844 C 506.535156 174.242188 506.535156 171.644531 506.539062 169.042969 C 506.589844 154.203125 506.589844 154.203125 504.800781 139.496094 C 504.582031 138.292969 504.582031 138.292969 504.359375 137.066406 C 501.425781 122.183594 491.128906 107.75 478.847656 99.183594 C 466.460938 90.972656 453.640625 88.675781 439.011719 88.707031 C 437.699219 88.703125 436.386719 88.699219 435.074219 88.695312 C 431.480469 88.683594 427.890625 88.683594 424.296875 88.6875 C 420.417969 88.6875 416.539062 88.679688 412.660156 88.671875 C 405.0625 88.660156 397.464844 88.65625 389.867188 88.652344 C 383.691406 88.652344 377.515625 88.648438 371.335938 88.644531 C 353.8125 88.632812 336.285156 88.625 318.757812 88.625 C 317.8125 88.625 316.867188 88.625 315.894531 88.625 C 314.949219 88.625 314.003906 88.625 313.03125 88.625 C 297.714844 88.625 282.398438 88.613281 267.078125 88.589844 C 251.339844 88.570312 235.597656 88.558594 219.859375 88.558594 C 211.027344 88.558594 202.195312 88.554688 193.363281 88.539062 C 185.84375 88.523438 178.320312 88.523438 170.800781 88.53125 C 166.96875 88.539062 163.132812 88.539062 159.300781 88.523438 C 155.785156 88.511719 152.269531 88.515625 148.75 88.527344 C 147.484375 88.53125 146.222656 88.527344 144.957031 88.519531 C 134.320312 88.449219 124.027344 89.773438 114.519531 94.945312 Z M 114.519531 94.945312 " />
<path style=" stroke:none;fill-rule:nonzero;fill:rgb(99.215686%,99.215686%,99.215686%);fill-opacity:1;" d="M 119.496094 137.199219 C 206.804688 137.199219 206.804688 137.199219 222.910156 141.03125 C 223.433594 141.152344 223.960938 141.273438 224.503906 141.398438 C 238.8125 144.789062 249.429688 152.246094 260.445312 161.722656 C 261.453125 162.578125 262.460938 163.429688 263.472656 164.28125 C 268.0625 168.175781 272.574219 172.164062 276.914062 176.335938 C 277.601562 176.992188 278.289062 177.648438 278.996094 178.328125 C 280.359375 180.121094 280.359375 180.121094 280.183594 181.503906 C 279.472656 183.539062 278.601562 185.441406 277.671875 187.386719 C 277.28125 188.207031 276.894531 189.03125 276.492188 189.878906 C 275.871094 191.1875 275.871094 191.1875 275.238281 192.527344 C 266.660156 210.9375 261.886719 228.890625 259.679688 249.101562 C 259.171875 249.101562 258.667969 249.101562 258.144531 249.101562 C 258.058594 248.679688 257.96875 248.253906 257.878906 247.820312 C 255.855469 238.269531 253.40625 229.449219 248.953125 220.742188 C 248.535156 219.925781 248.117188 219.109375 247.6875 218.265625 C 239.214844 202.847656 226.324219 193.25 209.792969 187.929688 C 193.394531 183.933594 180.316406 183.699219 162.394531 182.417969 C 162.394531 232.753906 162.394531 283.085938 162.394531 334.945312 C 190.753906 334.113281 206 332.558594 229.039062 319.617188 C 229.894531 319.140625 229.894531 319.140625 230.773438 318.65625 C 237.402344 314.9375 242.058594 310.941406 245.890625 304.289062 C 246.144531 303.851562 246.398438 303.414062 246.660156 302.960938 C 251.125 295.128906 253.777344 286.980469 256.15625 278.3125 C 256.75 276.214844 257.433594 274.15625 258.144531 272.097656 C 259.6875 274.410156 259.929688 275.277344 260.222656 277.929688 C 260.347656 278.980469 260.347656 278.980469 260.472656 280.046875 C 260.558594 280.789062 260.644531 281.535156 260.730469 282.300781 C 261.597656 289.140625 262.789062 295.453125 265.039062 301.988281 C 265.203125 302.464844 265.363281 302.9375 265.527344 303.429688 C 269.0625 313.757812 273.308594 324.085938 280.320312 332.558594 C 281.125 334.179688 281.125 334.179688 280.691406 336.074219 C 268.21875 358.132812 237.605469 370.929688 214.765625 377.957031 C 212.378906 378.5625 210.015625 378.988281 207.589844 379.402344 C 206.785156 379.539062 206.785156 379.539062 205.964844 379.683594 C 194.601562 381.585938 183.464844 382.035156 171.957031 381.957031 C 169.183594 381.941406 166.410156 381.941406 163.636719 381.949219 C 148.832031 381.902344 134.332031 381.015625 119.496094 380.167969 C 119.496094 299.988281 119.496094 219.808594 119.496094 137.199219 Z M 119.496094 137.199219 " />
<path style=" stroke:none;fill-rule:nonzero;fill:rgb(99.215686%,98.823529%,98.823529%);fill-opacity:1;" d="M 0 0 C 193.378906 0 386.761719 0 586 0 C 586 168.960938 586 337.921875 586 512 C 392.621094 512 199.238281 512 0 512 C 0 343.039062 0 174.078125 0 0 Z M 38.566406 41.996094 C 31.296875 49.789062 25.269531 58.238281 19.917969 67.449219 C 19.421875 68.277344 18.925781 69.105469 18.414062 69.960938 C 8.410156 87.546875 2.941406 107.378906 2.957031 127.535156 C 2.953125 128.65625 2.953125 129.78125 2.949219 130.90625 C 2.945312 133.984375 2.941406 137.0625 2.941406 140.144531 C 2.941406 143.46875 2.933594 146.792969 2.929688 150.117188 C 2.917969 157.386719 2.914062 164.65625 2.910156 171.925781 C 2.910156 176.472656 2.90625 181.019531 2.902344 185.566406 C 2.890625 198.171875 2.882812 210.777344 2.882812 223.382812 C 2.882812 224.191406 2.882812 224.996094 2.882812 225.828125 C 2.882812 226.636719 2.882812 227.445312 2.882812 228.277344 C 2.878906 229.914062 2.878906 231.550781 2.878906 233.1875 C 2.878906 234 2.878906 234.8125 2.878906 235.652344 C 2.875 248.789062 2.863281 261.925781 2.84375 275.058594 C 2.828125 288.570312 2.816406 302.082031 2.816406 315.59375 C 2.816406 323.171875 2.8125 330.746094 2.796875 338.324219 C 2.785156 344.78125 2.78125 351.238281 2.789062 357.695312 C 2.792969 360.984375 2.789062 364.269531 2.78125 367.554688 C 2.523438 393.269531 2.523438 393.269531 7.757812 418.300781 C 7.984375 419.011719 8.210938 419.726562 8.449219 420.460938 C 16.792969 445.699219 31.5 466.925781 52.855469 482.875 C 53.59375 483.425781 54.335938 483.980469 55.097656 484.550781 C 85.925781 506.703125 119.527344 510.074219 156.375 510 C 160.40625 509.996094 164.433594 510.003906 168.464844 510.011719 C 176.335938 510.019531 184.207031 510.019531 192.078125 510.011719 C 198.480469 510.007812 204.886719 510.003906 211.289062 510.007812 C 212.203125 510.007812 213.117188 510.007812 214.0625 510.007812 C 215.921875 510.011719 217.78125 510.011719 219.640625 510.011719 C 237.03125 510.019531 254.425781 510.011719 271.816406 510 C 286.707031 509.988281 301.59375 509.988281 316.484375 510 C 333.820312 510.011719 351.15625 510.015625 368.492188 510.011719 C 370.34375 510.007812 372.195312 510.007812 374.046875 510.007812 C 375.414062 510.007812 375.414062 510.007812 376.808594 510.007812 C 383.195312 510.003906 389.585938 510.007812 395.972656 510.015625 C 403.769531 510.019531 411.5625 510.019531 419.359375 510.007812 C 423.328125 510 427.296875 509.996094 431.265625 510.003906 C 472.800781 510.078125 512.738281 503.90625 543.472656 473.3125 C 543.855469 472.925781 544.238281 472.542969 544.636719 472.144531 C 545.019531 471.761719 545.40625 471.375 545.804688 470.980469 C 573.226562 443.398438 581.785156 409.566406 581.714844 371.828125 C 581.710938 368.414062 581.722656 364.996094 581.730469 361.578125 C 581.742188 354.902344 581.742188 348.222656 581.738281 341.546875 C 581.734375 336.113281 581.738281 330.679688 581.742188 325.246094 C 581.742188 324.472656 581.742188 323.695312 581.742188 322.894531 C 581.746094 321.316406 581.746094 319.742188 581.746094 318.164062 C 581.757812 303.40625 581.753906 288.644531 581.742188 273.886719 C 581.738281 260.417969 581.746094 246.949219 581.765625 233.480469 C 581.785156 219.613281 581.789062 205.746094 581.785156 191.878906 C 581.78125 184.109375 581.785156 176.339844 581.796875 168.566406 C 581.808594 161.953125 581.808594 155.335938 581.796875 148.722656 C 581.789062 145.355469 581.789062 141.988281 581.800781 138.617188 C 581.925781 99.863281 571.246094 67.355469 544.011719 38.992188 C 510.3125 6.125 466.003906 2.804688 421.308594 2.867188 C 417.527344 2.867188 413.75 2.863281 409.96875 2.859375 C 402.589844 2.851562 395.214844 2.855469 387.835938 2.859375 C 381.832031 2.863281 375.828125 2.863281 369.824219 2.859375 C 368.964844 2.859375 368.105469 2.859375 367.21875 2.859375 C 365.476562 2.859375 363.730469 2.859375 361.984375 2.859375 C 345.664062 2.855469 329.347656 2.859375 313.03125 2.867188 C 299.070312 2.875 285.113281 2.875 271.152344 2.867188 C 254.890625 2.859375 238.628906 2.855469 222.363281 2.859375 C 220.625 2.859375 218.886719 2.859375 217.148438 2.859375 C 216.292969 2.859375 215.4375 2.859375 214.554688 2.863281 C 208.570312 2.863281 202.582031 2.859375 196.597656 2.855469 C 189.285156 2.851562 181.976562 2.855469 174.664062 2.863281 C 170.945312 2.867188 167.226562 2.867188 163.507812 2.863281 C 116.839844 2.804688 72.511719 6.320312 38.566406 41.996094 Z M 38.566406 41.996094 " />
<path style=" stroke:none;fill-rule:nonzero;fill:rgb(99.215686%,99.215686%,99.215686%);fill-opacity:1;" d="M 405.972656 135.464844 C 407.519531 135.472656 409.066406 135.464844 410.613281 135.457031 C 424.214844 135.441406 437.675781 137.71875 450.414062 142.5625 C 451.09375 142.820312 451.769531 143.078125 452.46875 143.339844 C 461.855469 147.078125 470.679688 151.804688 478.757812 157.890625 C 476.511719 164.980469 468.824219 170.269531 463.132812 174.683594 C 460.835938 176.535156 458.660156 178.5 456.496094 180.503906 C 456.105469 180.859375 455.71875 181.214844 455.316406 181.582031 C 453.519531 183.234375 451.761719 184.90625 450.046875 186.648438 C 449.472656 187.210938 448.898438 187.777344 448.308594 188.359375 C 447.582031 189.113281 447.582031 189.113281 446.835938 189.878906 C 444.136719 191.347656 441.785156 190.773438 438.925781 190.082031 C 436.730469 189.429688 434.601562 188.648438 432.460938 187.832031 C 424.417969 184.785156 417.449219 183.703125 408.8125 183.761719 C 407.933594 183.753906 407.054688 183.75 406.148438 183.742188 C 388.882812 183.78125 371.871094 188.949219 358.492188 200.046875 C 357.898438 200.542969 357.898438 200.542969 357.292969 201.042969 C 344.042969 212.191406 333.65625 228.039062 331.839844 245.582031 C 330.167969 266.929688 332.980469 288.0625 347.003906 305.054688 C 348.433594 306.585938 349.875 308.046875 351.433594 309.445312 C 352.367188 310.417969 352.367188 310.417969 352.367188 311.953125 C 352.808594 312.148438 353.253906 312.34375 353.710938 312.542969 C 355.601562 313.578125 356.859375 314.761719 358.398438 316.261719 C 372.578125 329.058594 392.066406 333.480469 410.644531 334.042969 C 413.648438 334.179688 413.648438 334.179688 419.007812 334.945312 C 419.007812 349.871094 419.007812 364.792969 419.007812 380.167969 C 411.640625 380.261719 411.640625 380.261719 404.121094 380.359375 C 402.597656 380.386719 401.078125 380.414062 399.511719 380.445312 C 371.765625 380.738281 343.707031 367.578125 323.582031 348.917969 C 322.359375 347.792969 321.113281 346.691406 319.84375 345.621094 C 298.449219 327.382812 285.757812 297.367188 283.425781 269.796875 C 282.679688 257.007812 282.5625 243.945312 285.722656 231.472656 C 285.980469 230.324219 286.234375 229.179688 286.484375 228.03125 C 293.515625 197.570312 313.363281 170.660156 339.632812 153.917969 C 341.3125 152.921875 343.003906 151.949219 344.707031 150.992188 C 345.15625 150.742188 345.609375 150.488281 346.074219 150.226562 C 364.355469 140.117188 385.152344 135.332031 405.972656 135.464844 Z M 405.972656 135.464844 " />
<path style=" stroke:none;fill-rule:nonzero;fill:rgb(99.215686%,99.215686%,99.215686%);fill-opacity:1;" d="M 396.792969 242.96875 C 423.589844 242.96875 450.386719 242.96875 477.992188 242.96875 C 477.992188 288.246094 477.992188 333.519531 477.992188 380.167969 C 465.351562 380.167969 452.714844 380.167969 439.691406 380.167969 C 439.691406 349.058594 439.691406 317.945312 439.691406 285.890625 C 430.589844 285.890625 421.492188 285.890625 412.113281 285.890625 C 400.585938 279.679688 400.585938 279.679688 398.328125 275.160156 C 395.996094 264.675781 396.792969 253.710938 396.792969 242.96875 Z M 396.792969 242.96875 " />
<path style=" stroke:none;fill-rule:nonzero;fill:rgb(93.333334%,15.686275%,17.647059%);fill-opacity:1;" d="M 50.558594 32.191406 C 50.558594 34.492188 50.558594 34.492188 49.40625 35.699219 C 48.882812 36.125 48.363281 36.546875 47.828125 36.980469 C 45.152344 39.214844 42.710938 41.550781 40.324219 44.085938 C 38.972656 45.308594 37.660156 46.015625 36.003906 46.753906 C 37.140625 42.644531 39.894531 40.21875 42.847656 37.316406 C 43.335938 36.824219 43.820312 36.328125 44.320312 35.820312 C 44.789062 35.351562 45.257812 34.886719 45.742188 34.402344 C 46.167969 33.980469 46.597656 33.554688 47.039062 33.117188 C 48.257812 32.191406 48.257812 32.191406 50.558594 32.191406 Z M 50.558594 32.191406 " />
<path style=" stroke:none;fill-rule:nonzero;fill:rgb(10.980392%,10.980392%,10.980392%);fill-opacity:1;" d="M 368.691406 193.390625 C 369.117188 193.5625 369.542969 193.738281 369.984375 193.917969 C 365.769531 197.75 365.769531 197.75 362.324219 197.75 C 363.089844 195.449219 363.089844 195.449219 364.863281 194.109375 C 366.921875 193.148438 366.921875 193.148438 368.691406 193.390625 Z M 368.691406 193.390625 " />
<path style=" stroke:none;fill-rule:nonzero;fill:rgb(93.725491%,16.470589%,18.039216%);fill-opacity:1;" d="M 30.640625 52.886719 C 30.894531 53.390625 31.144531 53.898438 31.40625 54.417969 C 30.019531 56.71875 30.019531 56.71875 28.34375 59.019531 C 27.585938 59.019531 26.824219 59.019531 26.042969 59.019531 C 27.015625 56.019531 27.96875 54.578125 30.640625 52.886719 Z M 30.640625 52.886719 " />
</g>
</svg>