<svg viewBox="0 0 120 120" xmlns="http://www.w3.org/2000/svg">
  <defs>
    <!-- Red gradient for modern look -->
    <linearGradient id="redGradient" x1="0%" y1="0%" x2="100%" y2="100%">
      <stop offset="0%" style="stop-color:#ef4444;stop-opacity:1" />
      <stop offset="100%" style="stop-color:#dc2626;stop-opacity:1" />
    </linearGradient>
  </defs>
  
  <!-- Outer red rounded rectangle -->
  <rect x="8" y="8" width="104" height="104" rx="20" ry="20" fill="url(#redGradient)" />
  
  <!-- White border/padding -->
  <rect x="16" y="16" width="88" height="88" rx="12" ry="12" fill="white" />
  
  <!-- Inner dark rounded rectangle -->
  <rect x="22" y="22" width="76" height="76" rx="8" ry="8" fill="#1f2937" />
  
  <!-- Letter D -->
  <path d="M 32 40 L 32 80 L 45 80 C 55 80 62 73 62 60 C 62 47 55 40 45 40 Z M 40 48 L 45 48 C 50 48 54 51 54 60 C 54 69 50 72 45 72 L 40 72 Z" fill="white" />
  
  <!-- Letter G -->
  <path d="M 74 40 C 64 40 57 47 57 60 C 57 73 64 80 74 80 C 79 80 84 79 88 76 L 88 68 L 80 68 L 80 72 C 78 73 76 73 74 73 C 69 73 65 69 65 60 C 65 51 69 47 74 47 C 78 47 82 49 84 52 L 88 48 C 85 42 80 40 74 40 Z M 74 60 L 88 60 L 88 68 L 80 68 L 80 64 L 74 64 Z" fill="white" />
</svg>