<?xml version="1.0" encoding="UTF-8"?>
<svg version="1.1" xmlns="http://www.w3.org/2000/svg" width="256px" height="256px" viewBox="0 0 256 256">
<path d="M0 0 C84.48 0 168.96 0 256 0 C256 84.48 256 168.96 256 256 C171.52 256 87.04 256 0 256 C0 171.52 0 87.04 0 0 Z " fill="#FCFCFC" transform="translate(0,0)"/>
<path d="M0 0 C4.05431091 0.36943487 7.67862785 2.72963116 11.25 4.5625 C12.22453125 5.0565332 12.22453125 5.0565332 13.21875 5.56054688 C14.81434294 6.37007565 16.40742483 7.18455042 18 8 C18.42925781 7.06414063 18.42925781 7.06414063 18.8671875 6.109375 C20.45567285 3.15150572 21.92631121 2.33638643 25 1 C27.72238421 0.76261214 30.257642 0.86055807 33 1 C33 1.66 33 2.32 33 3 C33.56759033 3.11134277 34.13518066 3.22268555 34.7199707 3.33740234 C37.30048411 4.08732347 39.19826833 5.18380663 41.48046875 6.6015625 C42.36009277 7.14200195 43.2397168 7.68244141 44.14599609 8.23925781 C45.08781738 8.82030273 46.02963867 9.40134766 47 10 C48.99438885 11.19815498 50.99054002 12.3933805 52.98828125 13.5859375 C72.72493206 25.40815735 72.72493206 25.40815735 82.04296875 31.18359375 C84.85400632 32.91032092 87.6814954 34.60543642 90.51611328 36.29296875 C96.30982825 39.7441677 102.06269522 43.25065677 107.75 46.875 C108.62676392 47.42885376 108.62676392 47.42885376 109.52124023 47.99389648 C116.4910243 52.4730729 116.4910243 52.4730729 118 57 C118.03954234 59.33299825 118.04401732 61.66708189 118 64 C117.34 64 116.68 64 116 64 C115.67 65.65 115.34 67.3 115 69 C115.70125 69.2475 116.4025 69.495 117.125 69.75 C120.37002459 71.16088026 123.10316737 72.97895398 126 75 C124.87548273 77.9719385 123.77706209 80.33440687 122 83 C121.34 83 120.68 83 120 83 C119.89187988 83.57540527 119.78375977 84.15081055 119.67236328 84.74365234 C118.31401501 91.76896844 116.63590104 98.69092556 114.875 105.625 C114.59785156 106.72457031 114.32070312 107.82414062 114.03515625 108.95703125 C113.35894034 111.63857711 112.68051724 114.31954312 112 117 C111.34 117 110.68 117 110 117 C109.89042969 117.63164063 109.78085938 118.26328125 109.66796875 118.9140625 C108.71553224 124.28797258 107.70555432 129.65037039 106.625 135 C106.30402344 136.60875 106.30402344 136.60875 105.9765625 138.25 C105.18883461 141.27487509 104.27116398 144.01555361 103.1640625 146.92578125 C100.45698245 154.19398654 98.63493559 161.67639616 96.75 169.1875 C96.3833272 170.63099022 96.01614294 172.07435061 95.6484375 173.51757812 C94.75973835 177.01024564 93.87792187 180.50460581 93 184 C92.34 184 91.68 184 91 184 C90.87882813 184.65226563 90.75765625 185.30453125 90.6328125 185.9765625 C89.71056011 190.78646342 88.69832723 195.39025465 87 200 C85.68 200 84.36 200 83 200 C82.96127313 202.33538907 82.96127313 202.33538907 84 205 C85.63161245 206.3897292 87.36515173 207.51363728 89.15234375 208.6953125 C93.99212384 212.11283163 96.59838128 216.16564127 97.71484375 221.8671875 C98.75018493 229.61097221 97.87805761 235.1415833 94 242 C93.50781982 243.01827881 93.01563965 244.03655762 92.50854492 245.08569336 C89.82809048 248.1997162 89.56776274 248.4325638 85.76977539 248.80810547 C84.04643886 248.8611338 82.32177028 248.87865975 80.59765625 248.8671875 C79.68294052 248.8776712 78.76822479 248.88815491 77.82579041 248.8989563 C75.89342301 248.91178911 73.96089931 248.90913182 72.02856445 248.89208984 C69.07414982 248.87506712 66.12747723 248.93255323 63.17382812 248.99609375 C61.29427315 248.99931832 59.4147045 248.99816164 57.53515625 248.9921875 C56.65481216 249.01465546 55.77446808 249.03712341 54.8674469 249.06027222 C52.33573924 249.00287659 50.37760507 248.88121215 48 248 C46.37693444 246.04805493 45.29413289 244.0773818 44.13020325 241.82589722 C43.07616328 239.71641363 43.07616328 239.71641363 40.27661133 238.92626953 C39.2842749 238.87067871 38.29193848 238.81508789 37.26953125 238.7578125 C31.8518091 238.23368933 26.78061294 237.3629536 21.51171875 236.0546875 C20.79025665 235.87834778 20.06879456 235.70200806 19.32546997 235.52032471 C17.11159366 234.97669716 14.89954749 234.42601631 12.6875 233.875 C11.15702762 233.49818345 9.62642923 233.12187828 8.09570312 232.74609375 C4.39566102 231.83659905 0.69737681 230.92026727 -3 230 C-3 229.34 -3 228.68 -3 228 C-4.11375 227.9175 -5.2275 227.835 -6.375 227.75 C-15.52855995 226.55324481 -22.71141806 222.72591738 -29 216 C-32 211.78125 -32 211.78125 -32 209 C-32.66 209 -33.32 209 -34 209 C-43.93671239 186.2441701 -40.14521686 169.18391528 -33 146 C-32.34 146 -31.68 146 -31 146 C-30.88398437 144.700625 -30.76796875 143.40125 -30.6484375 142.0625 C-30.10727664 137.20914152 -28.99099614 132.67916684 -27.625 128 C-27.40021973 127.20891846 -27.17543945 126.41783691 -26.94384766 125.6027832 C-25.84283606 121.76430327 -24.69041893 117.95883407 -23.375 114.1875 C-19.4207044 102.55057296 -16.00275223 88.76771248 -21 77 C-20.61724981 69.85532983 -18.68075714 62.93444456 -17 56 C-16.34 56 -15.68 56 -15 56 C-14.34 50.72 -13.68 45.44 -13 40 C-11.700625 40.103125 -10.40125 40.20625 -9.0625 40.3125 C-7.96615234 40.39951172 -7.96615234 40.39951172 -6.84765625 40.48828125 C-3.72147235 41.05005092 -0.84645505 42.04669167 2.15112305 43.0793457 C8.49937479 45.13087174 14.98690824 46.74112186 21.4375 48.4375 C22.19101746 48.63665009 22.94453491 48.83580017 23.72088623 49.04098511 C34.75932207 51.95555893 45.81028281 54.72061316 57 57 C57 57.66 57 58.32 57 59 C58.06734375 59.10183594 59.1346875 59.20367187 60.234375 59.30859375 C66.03013343 60.03242525 71.6093349 61.5837125 77.25 63.0625 C79.37905849 63.6202929 81.50922932 64.17386173 83.640625 64.72265625 C84.57422852 64.96765869 85.50783203 65.21266113 86.46972656 65.46508789 C89.22121795 66.13788899 89.22121795 66.13788899 93 66 C92.31035156 65.63648437 91.62070313 65.27296875 90.91015625 64.8984375 C86.37665324 62.47310667 81.92833474 60.03757329 77.6875 57.125 C71.69886263 53.01600794 65.33037498 49.54789152 59 46 C59 45.34 59 44.68 59 44 C58.23429687 43.80019531 57.46859375 43.60039063 56.6796875 43.39453125 C51.46522586 41.41834993 46.89036799 38.56139328 42.125 35.6875 C41.16980469 35.11837891 40.21460937 34.54925781 39.23046875 33.96289062 C34.37738686 31.06369013 29.55550685 28.11995678 24.77001953 25.1105957 C22.15206449 23.46796433 19.51231529 21.86131012 16.875 20.25 C9.85061401 15.93490239 2.91915153 11.48136951 -4 7 C-2.92598892 4.08482708 -2.22189824 2.22189824 0 0 Z " fill="#97BB59" transform="translate(85,8)"/>
<path d="M0 0 C1.60495567 0.11442461 3.20898119 0.24194694 4.8125 0.375 C5.70582031 0.44460937 6.59914063 0.51421875 7.51953125 0.5859375 C10 1 10 1 13 3 C15.39587567 3.60876338 17.76682113 4.13646799 20.1875 4.625 C29.12822388 6.52780329 38.00587768 8.66652622 46.875 10.875 C47.56921051 11.04744232 48.26342102 11.21988464 48.97866821 11.39755249 C58.28333729 13.71671802 67.52701004 16.17356723 76.63623047 19.18505859 C83.53291043 21.39886608 90.58638433 23.13273175 97.5625 20.5625 C102.3812263 18.88708958 106.82494078 18.69123802 111.875 18.6875 C112.61306885 18.68242432 113.3511377 18.67734863 114.11157227 18.67211914 C121.07220438 18.76065245 121.07220438 18.76065245 124 21 C124.103125 21.928125 124.20625 22.85625 124.3125 23.8125 C125.20661539 27.95794408 126.74081511 28.52383318 130.15234375 30.73046875 C135.024245 34.07796961 137.60358787 38.19223028 138.71484375 43.8671875 C139.75018493 51.61097221 138.87805761 57.1415833 135 64 C134.50781982 65.01827881 134.01563965 66.03655762 133.50854492 67.08569336 C130.82809048 70.1997162 130.56776274 70.4325638 126.76977539 70.80810547 C125.04643886 70.8611338 123.32177028 70.87865975 121.59765625 70.8671875 C120.68294052 70.8776712 119.76822479 70.88815491 118.82579041 70.8989563 C116.89342301 70.91178911 114.96089931 70.90913182 113.02856445 70.89208984 C110.07414982 70.87506712 107.12747723 70.93255323 104.17382812 70.99609375 C102.29427315 70.99931832 100.4147045 70.99816164 98.53515625 70.9921875 C97.21464012 71.02588943 97.21464012 71.02588943 95.8674469 71.06027222 C93.33573924 71.00287659 91.37760507 70.88121215 89 70 C87.37693444 68.04805493 86.29413289 66.0773818 85.13020325 63.82589722 C84.07616328 61.71641363 84.07616328 61.71641363 81.27661133 60.92626953 C80.2842749 60.87067871 79.29193848 60.81508789 78.26953125 60.7578125 C72.8518091 60.23368933 67.78061294 59.3629536 62.51171875 58.0546875 C61.4295256 57.79017792 61.4295256 57.79017792 60.32546997 57.52032471 C58.11159366 56.97669716 55.89954749 56.42601631 53.6875 55.875 C52.15702762 55.49818345 50.62642923 55.12187828 49.09570312 54.74609375 C45.39566102 53.83659905 41.69737681 52.92026727 38 52 C38 51.34 38 50.68 38 50 C36.88625 49.9175 35.7725 49.835 34.625 49.75 C25.47144005 48.55324481 18.28858194 44.72591738 12 38 C9 33.78125 9 33.78125 9 31 C8.34 31 7.68 31 7 31 C2.31522106 20.27149861 -0.39024171 11.79397163 0 0 Z " fill="#799B49" transform="translate(44,186)"/>
<path d="M0 0 C4.05431091 0.36943487 7.67862785 2.72963116 11.25 4.5625 C11.8996875 4.89185547 12.549375 5.22121094 13.21875 5.56054688 C14.81434294 6.37007565 16.40742483 7.18455042 18 8 C18.42925781 7.06414063 18.42925781 7.06414063 18.8671875 6.109375 C20.45567285 3.15150572 21.92631121 2.33638643 25 1 C27.72238421 0.76261214 30.257642 0.86055807 33 1 C33 1.66 33 2.32 33 3 C33.56759033 3.11134277 34.13518066 3.22268555 34.7199707 3.33740234 C37.30048411 4.08732347 39.19826833 5.18380663 41.48046875 6.6015625 C42.36009277 7.14200195 43.2397168 7.68244141 44.14599609 8.23925781 C45.08781738 8.82030273 46.02963867 9.40134766 47 10 C48.99438885 11.19815498 50.99054002 12.3933805 52.98828125 13.5859375 C72.72493206 25.40815735 72.72493206 25.40815735 82.04296875 31.18359375 C84.85400632 32.91032092 87.6814954 34.60543642 90.51611328 36.29296875 C96.30982825 39.7441677 102.06269522 43.25065677 107.75 46.875 C108.33450928 47.24423584 108.91901855 47.61347168 109.52124023 47.99389648 C116.4910243 52.4730729 116.4910243 52.4730729 118 57 C118.03954234 59.33299825 118.04401732 61.66708189 118 64 C117.34 64 116.68 64 116 64 C115.67 65.65 115.34 67.3 115 69 C116.051875 69.37125 116.051875 69.37125 117.125 69.75 C120.37002459 71.16088026 123.10316737 72.97895398 126 75 C124.125 79.75 124.125 79.75 123 82 C116.21338787 81.21085905 109.63850633 79.58725189 103 78 C103 77.34 103 76.68 103 76 C101.14453125 76.09765625 99.2890625 76.1953125 97.43359375 76.29296875 C94.67364172 75.96071128 92.52933488 74.93970351 90.01538086 73.80004883 C86.16977642 72.27345334 82.10266771 71.58840911 78.0625 70.75 C69.97696255 68.99638697 62.04922008 66.93937637 54.125 64.5625 C46.18567848 62.18723744 38.23477189 59.98040669 30.1875 58 C28.73718384 57.6428894 28.73718384 57.6428894 27.25756836 57.27856445 C25.24991357 56.78500843 23.24218064 56.29177015 21.234375 55.79882812 C15.21137965 54.31126466 9.19815378 52.78657616 3.1875 51.25 C2.01791748 50.95609375 0.84833496 50.6621875 -0.35668945 50.359375 C-1.44167725 50.0809375 -2.52666504 49.8025 -3.64453125 49.515625 C-5.08856323 49.14872559 -5.08856323 49.14872559 -6.56176758 48.77441406 C-9 48 -9 48 -12 46 C-12.1875 43.375 -12.1875 43.375 -12 41 C-6.65269738 40.70832895 -2.96375664 41.28653842 2.13354492 43.06176758 C8.48043084 45.13919562 14.98056148 46.73945279 21.4375 48.4375 C22.19101746 48.63665009 22.94453491 48.83580017 23.72088623 49.04098511 C34.75932207 51.95555893 45.81028281 54.72061316 57 57 C57 57.66 57 58.32 57 59 C58.06734375 59.10183594 59.1346875 59.20367187 60.234375 59.30859375 C66.03013343 60.03242525 71.6093349 61.5837125 77.25 63.0625 C79.37905849 63.6202929 81.50922932 64.17386173 83.640625 64.72265625 C84.57422852 64.96765869 85.50783203 65.21266113 86.46972656 65.46508789 C89.22121795 66.13788899 89.22121795 66.13788899 93 66 C92.31035156 65.63648437 91.62070313 65.27296875 90.91015625 64.8984375 C86.37665324 62.47310667 81.92833474 60.03757329 77.6875 57.125 C71.69886263 53.01600794 65.33037498 49.54789152 59 46 C59 45.34 59 44.68 59 44 C58.23429687 43.80019531 57.46859375 43.60039063 56.6796875 43.39453125 C51.46522586 41.41834993 46.89036799 38.56139328 42.125 35.6875 C41.16980469 35.11837891 40.21460938 34.54925781 39.23046875 33.96289062 C34.37738686 31.06369013 29.55550685 28.11995678 24.77001953 25.1105957 C22.15206449 23.46796433 19.51231529 21.86131012 16.875 20.25 C9.85061401 15.93490239 2.91915153 11.48136951 -4 7 C-2.92598892 4.08482708 -2.22189824 2.22189824 0 0 Z " fill="#7A9C4C" transform="translate(85,8)"/>
<path d="M0 0 C6.83027475 5.61600369 9.92488629 10.59382455 10.94140625 19.3828125 C11.26670452 25.4060773 9.63172786 29.9805785 6.6875 35.1875 C5.94922974 36.71491821 5.94922974 36.71491821 5.19604492 38.27319336 C2.51559048 41.3872162 2.25526274 41.6200638 -1.54272461 41.99560547 C-3.26606114 42.0486338 -4.99072972 42.06615975 -6.71484375 42.0546875 C-7.62955948 42.0651712 -8.54427521 42.07565491 -9.48670959 42.0864563 C-11.41907699 42.09928911 -13.35160069 42.09663182 -15.28393555 42.07958984 C-18.23835018 42.06256712 -21.18502277 42.12005323 -24.13867188 42.18359375 C-26.01822685 42.18681832 -27.8977955 42.18566164 -29.77734375 42.1796875 C-30.65768784 42.20215546 -31.53803192 42.22462341 -32.4450531 42.24777222 C-38.38999882 42.11299605 -38.38999882 42.11299605 -41.01394653 39.48052979 C-43.48006268 35.75785204 -44.3125 33.75298164 -44.3125 29.1875 C-44.9725 29.1875 -45.6325 29.1875 -46.3125 29.1875 C-47.3851483 17.83104895 -45.44264481 11.60165095 -39.3125 2.1875 C-38.6525 2.1875 -37.9925 2.1875 -37.3125 2.1875 C-37.3125 1.5275 -37.3125 0.8675 -37.3125 0.1875 C-25.45524212 -7.22328618 -11.83315075 -8.4904528 0 0 Z " fill="#474847" transform="translate(172.3125,214.8125)"/>
<path d="M0 0 C4.63734138 2.63391562 9.24217661 5.31365959 13.8125 8.0625 C14.4506665 8.44535156 15.08883301 8.82820313 15.74633789 9.22265625 C19.31412529 11.36771161 22.87004053 13.53073719 26.4140625 15.71484375 C36.15226568 21.71358534 45.98548807 27.47428157 56 33 C56 33.66 56 34.32 56 35 C56.65613281 35.23203125 57.31226563 35.4640625 57.98828125 35.703125 C61.92758375 37.39942647 65.51160439 39.54982297 69.1875 41.75 C69.9412793 42.19811035 70.69505859 42.6462207 71.47167969 43.10791016 C72.96880737 43.99853721 74.46508794 44.89059003 75.96044922 45.78417969 C77.68897134 46.81458909 79.42388436 47.83426599 81.16015625 48.8515625 C85.36041576 51.32230339 89.30209334 53.79514756 93 57 C88.00851116 56.36441144 83.19318576 55.3999763 78.31640625 54.15234375 C77.61603745 53.97619034 76.91566864 53.80003693 76.19407654 53.61854553 C73.98269119 53.06153984 71.77259307 52.49960878 69.5625 51.9375 C68.05281712 51.55631277 66.5430522 51.17545028 65.03320312 50.79492188 C61.35451019 49.86703089 57.67696238 48.93472405 54 48 C54 47.34 54 46.68 54 46 C52.74823975 45.88970459 51.49647949 45.77940918 50.20678711 45.66577148 C44.57507421 45.03624176 39.17960721 43.72931578 33.69140625 42.34765625 C32.64347397 42.08746201 31.59554169 41.82726776 30.51585388 41.55918884 C28.31753621 41.01154461 26.11995768 40.46092553 23.9230957 39.9074707 C20.55066668 39.05952469 17.17498656 38.22553531 13.79882812 37.39257812 C11.65864548 36.85760499 9.51866399 36.32182636 7.37890625 35.78515625 C5.86182823 35.41161766 5.86182823 35.41161766 4.31410217 35.03053284 C3.38230637 34.79366257 2.45051056 34.5567923 1.49047852 34.31274414 C0.66935074 34.10702286 -0.15177704 33.90130157 -0.99778748 33.68934631 C-3 33 -3 33 -5 31 C-4.34 31 -3.68 31 -3 31 C-4.83448135 25.60446662 -6.85378258 22.82377075 -11.37890625 19.359375 C-13 18 -13 18 -15 15 C-14.65358161 11.53581611 -13.96713413 9.95070119 -12 7 C-5.875 6.5625 -5.875 6.5625 -3 8 C-3.33 6.35 -3.66 4.7 -4 3 C-2.68 2.67 -1.36 2.34 0 2 C0 1.34 0 0.68 0 0 Z " fill="#F9FAF8" transform="translate(88,19)"/>
<path d="M0 0 C0.90105469 0.00902344 1.80210937 0.01804688 2.73046875 0.02734375 C3.41753906 0.03894531 4.10460937 0.05054688 4.8125 0.0625 C4.8125 0.7225 4.8125 1.3825 4.8125 2.0625 C5.699375 2.289375 6.58625 2.51625 7.5 2.75 C12.08200261 4.56551047 14.6321643 7.13104158 17.1875 11.3125 C18.42755927 16.76876078 17.66234833 21.45385851 15.0625 26.375 C11.79237665 30.28098067 8.44399342 33.82219895 3.203125 34.30078125 C-7.34565008 34.55006822 -7.34565008 34.55006822 -12.1875 30.0625 C-16.6368902 25.40644414 -18.55766145 21.78538134 -18.47265625 15.19140625 C-17.86046288 10.62092153 -15.44817493 7.2119389 -12.0625 4.125 C-10.1875 3.0625 -10.1875 3.0625 -8.1875 3.0625 C-8.1875 2.4025 -8.1875 1.7425 -8.1875 1.0625 C-5.17259443 0.05753148 -3.14568308 -0.04085303 0 0 Z " fill="#B7B5B5" transform="translate(154.1875,218.9375)"/>
<path d="M0 0 C5.34730262 -0.29167105 9.03624336 0.28653842 14.13354492 2.06176758 C20.48043084 4.13919562 26.98056148 5.73945279 33.4375 7.4375 C34.19101746 7.63665009 34.94453491 7.83580017 35.72088623 8.04098511 C46.75932207 10.95555893 57.81028281 13.72061316 69 16 C69 16.66 69 17.32 69 18 C70.06734375 18.10441406 71.1346875 18.20882812 72.234375 18.31640625 C78.01785678 19.04125231 83.60782514 20.50636441 89.25 21.9375 C90.32507813 22.20240234 91.40015625 22.46730469 92.5078125 22.74023438 C93.54164063 22.99998047 94.57546875 23.25972656 95.640625 23.52734375 C96.57422852 23.76187256 97.50783203 23.99640137 98.46972656 24.23803711 C100.83324283 24.94978299 102.80527493 25.89224258 105 27 C106.918125 27.433125 106.918125 27.433125 108.875 27.875 C114.19205278 29.13482407 117.94003993 31.4100599 121 36 C118.81179058 35.91198603 116.62438851 35.8037996 114.4375 35.6875 C113.21933594 35.62949219 112.00117188 35.57148437 110.74609375 35.51171875 C106.68496154 34.95696555 103.74590254 33.63683135 100 32 C96.71641782 31.1130616 93.39209384 30.44095196 90.0625 29.75 C81.97696255 27.99638697 74.04922008 25.93937637 66.125 23.5625 C58.18567848 21.18723744 50.23477189 18.98040669 42.1875 17 C41.22062256 16.76192627 40.25374512 16.52385254 39.25756836 16.27856445 C37.24991357 15.78500843 35.24218064 15.29177015 33.234375 14.79882812 C27.21137965 13.31126466 21.19815378 11.78657616 15.1875 10.25 C14.01791748 9.95609375 12.84833496 9.6621875 11.64331055 9.359375 C10.01582886 8.94171875 10.01582886 8.94171875 8.35546875 8.515625 C7.39278076 8.27102539 6.43009277 8.02642578 5.43823242 7.77441406 C3 7 3 7 0 5 C-0.1875 2.375 -0.1875 2.375 0 0 Z " fill="#668446" transform="translate(73,49)"/>
<path d="M0 0 C5.33333333 -0.35555556 5.33333333 -0.35555556 7.875 1 C9.65652521 4.16715592 9.3508114 7.48513967 9 11 C8.82082031 11.63550781 8.64164063 12.27101563 8.45703125 12.92578125 C7.8886526 15.50534588 8.12757079 17.63281999 8.4375 20.25 C8.53933594 21.14203125 8.64117187 22.0340625 8.74609375 22.953125 C8.87177734 23.96632813 8.87177734 23.96632813 9 25 C9.04898438 23.94039062 9.09796875 22.88078125 9.1484375 21.7890625 C9.22346709 20.40101503 9.29901485 19.01299549 9.375 17.625 C9.42140625 16.57699219 9.42140625 16.57699219 9.46875 15.5078125 C9.7734375 10.2265625 9.7734375 10.2265625 12 8 C14.5 7.75 14.5 7.75 17 8 C19 10 19 10 19.4375 13.5625 C19.33112771 18.87144443 16.72503075 22.60692013 14 27 C13.31874244 28.32593754 12.64723971 29.65712883 12 31 C14.31 31.66 16.62 32.32 19 33 C16.42077613 34.28961193 15.59708789 33.79211692 12.8671875 33.00390625 C12.06152344 32.77509766 11.25585938 32.54628906 10.42578125 32.31054688 C9.58402344 32.06369141 8.74226563 31.81683594 7.875 31.5625 C7.02550781 31.31951172 6.17601563 31.07652344 5.30078125 30.82617188 C3.19858388 30.2238569 1.09854569 29.61489475 -1 29 C-0.34 28.67 0.32 28.34 1 28 C-0.83448135 22.60446662 -2.85378258 19.82377075 -7.37890625 16.359375 C-9 15 -9 15 -11 12 C-10.65358161 8.53581611 -9.96713413 6.95070119 -8 4 C-1.875 3.5625 -1.875 3.5625 1 5 C0.67 3.35 0.34 1.7 0 0 Z " fill="#78B9E1" transform="translate(84,22)"/>
<path d="M0 0 C4.35147962 2.17573981 7.19192993 4.42664629 9 9 C9 15.08061927 7.07524161 17.82536226 3 22 C-0.70221166 23.85110583 -4.95906917 23.46454795 -9 23 C-12.49996383 20.95835443 -14.80555258 18.90910064 -16 15 C-16.7557317 8.30637636 -16.7557317 8.30637636 -14.94921875 5.18359375 C-10.50180138 -0.26088474 -6.72703735 -0.81539847 0 0 Z " fill="#F5F5F5" transform="translate(158,225)"/>
<path d="M0 0 C0.73726318 -0.00515625 1.47452637 -0.0103125 2.23413086 -0.015625 C6.00258846 0.03268303 8.92924401 0.2126708 12.125 2.3125 C12.125 3.9625 12.125 5.6125 12.125 7.3125 C11.4959375 7.168125 10.866875 7.02375 10.21875 6.875 C-1.42657306 4.34950825 -9.88419306 5.54981699 -20.875 10.3125 C-20.875 10.9725 -20.875 11.6325 -20.875 12.3125 C-21.535 12.3125 -22.195 12.3125 -22.875 12.3125 C-23.1225 12.9725 -23.37 13.6325 -23.625 14.3125 C-24.875 17.3125 -24.875 17.3125 -25.86328125 18.93359375 C-29.66458962 25.36126063 -29.66904215 31.98040053 -29.875 39.3125 C-29.215 39.3125 -28.555 39.3125 -27.875 39.3125 C-27.875 40.3025 -27.875 41.2925 -27.875 42.3125 C-30.25 42 -30.25 42 -32.875 41.3125 C-36.45153811 35.94769283 -35.4079789 29.02597255 -34.515625 22.80859375 C-32.72578425 16.04831687 -28.06437376 10.84533254 -22.875 6.3125 C-20.58984375 5.53125 -20.58984375 5.53125 -18.875 5.3125 C-18.875 4.6525 -18.875 3.9925 -18.875 3.3125 C-12.6061194 0.72485395 -6.71111628 0.01146342 0 0 Z " fill="#617E45" transform="translate(155.875,204.6875)"/>
<path d="M0 0 C2.5 0.25 2.5 0.25 4.5 2.25 C5.37379433 9.3651824 3.18722119 13.30575251 -0.5 19.25 C-1.18125756 20.57593754 -1.85276029 21.90712883 -2.5 23.25 C-0.19 23.91 2.12 24.57 4.5 25.25 C1.59905209 26.70047396 -0.05972596 25.70356803 -3.125 24.8125 C-4.12789063 24.52503906 -5.13078125 24.23757812 -6.1640625 23.94140625 C-6.93492188 23.71324219 -7.70578125 23.48507813 -8.5 23.25 C-7.51 22.92 -6.52 22.59 -5.5 22.25 C-5.48018066 21.65461426 -5.46036133 21.05922852 -5.43994141 20.44580078 C-5.34483874 17.75507847 -5.23510158 15.06514852 -5.125 12.375 C-5.0940625 11.43785156 -5.063125 10.50070313 -5.03125 9.53515625 C-4.99257812 8.63925781 -4.95390625 7.74335937 -4.9140625 6.8203125 C-4.8826416 5.99289551 -4.8512207 5.16547852 -4.81884766 4.31298828 C-4.31943748 1.08173564 -3.18564042 0.31856404 0 0 Z " fill="#5391C8" transform="translate(98.5,29.75)"/>
<path d="M0 0 C1.82102603 3.86968032 2.83252688 6.75411293 2 11 C-0.40738472 13.96499722 -3.06656486 16.55650435 -6 19 C-6.33 19 -6.66 19 -7 19 C-7.67364661 16.91891315 -8.33866798 14.8350329 -9 12.75 C-9.37125 11.58984375 -9.7425 10.4296875 -10.125 9.234375 C-11 6 -11 6 -11 2 C-7.17679443 0.57741188 -4.08718695 -0.24042276 0 0 Z " fill="#F3F7EE" transform="translate(146,136)"/>
<path d="M0 0 C3.6625122 0.76302337 6.6275259 2.00621243 10 3.625 C8.83528191 4.78971809 7.66908955 5.95299387 6.49609375 7.109375 C5.46199193 8.15697685 4.45543849 9.23223483 3.47265625 10.328125 C1.9375 12 1.9375 12 -1 14.625 C-3.51589789 14.44424617 -4.65425224 13.95346038 -6.484375 12.21484375 C-7.65625 10.68489583 -8.828125 9.15494792 -10 7.625 C-4.17543405 0.86988209 -4.17543405 0.86988209 0 0 Z " fill="#F6F9F2" transform="translate(124,115.375)"/>
<path d="M0 0 C5.28 1.32 10.56 2.64 16 4 C14.875 10.75 14.875 10.75 14 14 C10.20184692 13.68402462 6.62148607 13.21784487 3 12 C0.12058608 7.63974464 0 5.25807984 0 0 Z " fill="#F7F9F3" transform="translate(104,140)"/>
<path d="M0 0 C0 0.66 0 1.32 0 2 C0.78375 1.95875 1.5675 1.9175 2.375 1.875 C5 2 5 2 7 4 C6.96692593 7.05383879 6.43304158 9.96870896 6 13 C2.37 13.33 -1.26 13.66 -5 14 C-7.41891892 7.9527027 -7.41891892 7.9527027 -6 4 C-2.64864865 0 -2.64864865 0 0 0 Z " fill="#F3F7EE" transform="translate(130,145)"/>
<path d="M0 0 C3.73487777 0.4979837 5.81237635 0.87491756 9 3 C9.6875 6.625 9.6875 6.625 10 10 C4.86666667 14.03333333 4.86666667 14.03333333 0.75 13.875 C-2 13 -2 13 -4 11 C-3.67028521 7.70285207 -3.3773161 6.3773161 -1 4 C-0.3574765 1.93125966 -0.3574765 1.93125966 0 0 Z " fill="#FAFBF8" transform="translate(107,126)"/>
<path d="M0 0 C1.670625 0.061875 1.670625 0.061875 3.375 0.125 C4.8356285 2.77238916 5.375 4.01948334 5.375 7.125 C6.035 7.125 6.695 7.125 7.375 7.125 C6.22326645 9.59300047 5.32716435 11.17283565 3.375 13.125 C0.9921875 13.1015625 0.9921875 13.1015625 -1.75 12.75 C-2.66007813 12.63914063 -3.57015625 12.52828125 -4.5078125 12.4140625 C-5.20648438 12.31867188 -5.90515625 12.22328125 -6.625 12.125 C-6.51101335 10.49919034 -6.38344341 8.87432843 -6.25 7.25 C-6.18039063 6.34507813 -6.11078125 5.44015625 -6.0390625 4.5078125 C-5.3225529 0.38450253 -4.08739798 0.14094476 0 0 Z " fill="#F6F9F3" transform="translate(136.625,120.875)"/>
<path d="M0 0 C3 0.25 3 0.25 5 2.25 C2.69 2.58 0.38 2.91 -2 3.25 C-0.78694805 8.25383929 2.34223715 10.46553107 6.22265625 13.50390625 C8.1802824 15.4271126 8.61921331 16.57277663 9 19.25 C9.66 19.25 10.32 19.25 11 19.25 C11 21.23 11 23.21 11 25.25 C8.69 24.92 6.38 24.59 4 24.25 C4.66 23.92 5.32 23.59 6 23.25 C4.16551865 17.85446662 2.14621742 15.07377075 -2.37890625 11.609375 C-4 10.25 -4 10.25 -6 7.25 C-5.5601518 2.74155593 -4.87125629 0.40593802 0 0 Z " fill="#6099C8" transform="translate(79,26.75)"/>
<path d="M0 0 C5.33333333 -0.35555556 5.33333333 -0.35555556 7.875 1 C9.89748584 4.59553039 9.54777136 9.03516795 8.4609375 12.93359375 C7.89587855 15.46678174 8.09059065 17.54994233 8.375 20.125 C8.46523437 20.99382813 8.55546875 21.86265625 8.6484375 22.7578125 C8.8885639 25.02985046 8.8885639 25.02985046 10 27 C9.67 27.99 9.34 28.98 9 30 C8.01 30 7.02 30 6 30 C6.03480469 29.07058594 6.06960937 28.14117187 6.10546875 27.18359375 C6.48734732 17.61417408 6.48734732 17.61417408 3 9 C-0.45270271 6.20051132 -3.62928497 5.50822268 -8 5 C-8 4.67 -8 4.34 -8 4 C-1.25 3.875 -1.25 3.875 1 5 C0.67 3.35 0.34 1.7 0 0 Z " fill="#E3ECF4" transform="translate(84,22)"/>
<path d="M0 0 C2.3465427 1.31406391 4.67872647 2.64244881 7 4 C7.59425781 4.34675781 8.18851563 4.69351562 8.80078125 5.05078125 C10.4375 6.0625 10.4375 6.0625 13 8 C13 8.99 13 9.98 13 11 C11.02 11.66 9.04 12.32 7 13 C6.95101562 14.07121094 6.90203125 15.14242187 6.8515625 16.24609375 C6.77654706 17.64325639 6.7009987 19.0403905 6.625 20.4375 C6.57859375 21.49807617 6.57859375 21.49807617 6.53125 22.58007812 C6.42719371 24.39239188 6.22080108 26.19817988 6 28 C5.34 28.33 4.68 28.66 4 29 C3.67 23.72 3.34 18.44 3 13 C3.33 13 3.66 13 4 13 C4.16677282 9.58343976 4.16677282 9.58343976 4 6 C1.64046906 3.64046906 0.22104383 3.50858587 -3 3 C-2.01 2.67 -1.02 2.34 0 2 C0 1.34 0 0.68 0 0 Z " fill="#EAF0F2" transform="translate(88,19)"/>
<path d="M0 0 C2 3 2 3 2.875 5.5 C4.14747405 8.32772011 5.41466547 9.36262146 8 11 C7.236875 11.433125 6.47375 11.86625 5.6875 12.3125 C3.41906232 13.73686785 1.7800277 15.03260097 0 17 C-0.23460937 16.37609375 -0.46921875 15.7521875 -0.7109375 15.109375 C-2.36823075 12.39744059 -3.6141599 12.11024003 -6.625 11.25 C-7.44226562 11.00765625 -8.25953125 10.7653125 -9.1015625 10.515625 C-9.72804687 10.34546875 -10.35453125 10.1753125 -11 10 C-11 9.34 -11 8.68 -11 8 C-10.37351563 7.92523438 -9.74703125 7.85046875 -9.1015625 7.7734375 C-6.59401809 7.37001553 -4.36502817 6.93390509 -2 6 C-0.30834699 3.01716843 -0.30834699 3.01716843 0 0 Z " fill="#83C4E8" transform="translate(56,30)"/>
<path d="M0 0 C0.66 0.33 1.32 0.66 2 1 C2.64317031 8.07487342 0.82735898 12.09493185 -3 18 C-3.33 18 -3.66 18 -4 18 C-4.33 13.05 -4.66 8.1 -5 3 C-3.35 2.01 -1.7 1.02 0 0 Z " fill="#6FAEDA" transform="translate(101,31)"/>
<path d="M0 0 C3 0.125 3 0.125 4 1.125 C4.1875 3.5625 4.1875 3.5625 4 6.125 C3.34 6.785 2.68 7.445 2 8.125 C-2.55555556 7.56944444 -2.55555556 7.56944444 -4 6.125 C-4.125 3.625 -4.125 3.625 -4 1.125 C-3 0.125 -3 0.125 0 0 Z " fill="#323231" transform="translate(154,232.875)"/>
<path d="M0 0 C5.33333333 -0.35555556 5.33333333 -0.35555556 7.875 1 C9.70488947 4.25313684 9.18128355 7.31390109 9 11 C8.34 10.67 7.68 10.34 7 10 C7 9.01 7 8.02 7 7 C6.401875 6.71125 5.80375 6.4225 5.1875 6.125 C3 5 3 5 0 3 C0 2.01 0 1.02 0 0 Z " fill="#82B4DB" transform="translate(84,22)"/>
<path d="M0 0 C2 3 2 3 2 5 C1.21625 5.28875 0.4325 5.5775 -0.375 5.875 C-3.09671632 6.84912254 -3.09671632 6.84912254 -5 9 C-7.1640625 8.9765625 -7.1640625 8.9765625 -9.625 8.625 C-10.85089844 8.45871094 -10.85089844 8.45871094 -12.1015625 8.2890625 C-13.04128906 8.14597656 -13.04128906 8.14597656 -14 8 C-14 7.34 -14 6.68 -14 6 C-12.7625 6.061875 -11.525 6.12375 -10.25 6.1875 C-6.51817694 6.20727998 -4.79586495 5.58079842 -2 3 C-1.34 3 -0.68 3 0 3 C0 2.01 0 1.02 0 0 Z " fill="#B3CC8A" transform="translate(117,133)"/>
<path d="M0 0 C0.66 0 1.32 0 2 0 C2.66 1.65 3.32 3.3 4 5 C3.01 5.33 2.02 5.66 1 6 C0.67 6.99 0.34 7.98 0 9 C-0.37125 8.1028125 -0.37125 8.1028125 -0.75 7.1875 C-2.16370012 4.71352479 -3.65055383 3.56629745 -6 2 C-4.02 2 -2.04 2 0 2 C0 1.34 0 0.68 0 0 Z " fill="#93CBEA" transform="translate(69,12)"/>
<path d="M0 0 C2 3 2 3 2 6 C-1.10781684 8.40149483 -4.01668683 10.58793312 -8 11 C-8.99 10.67 -9.98 10.34 -11 10 C-11 9.34 -11 8.68 -11 8 C-10.37351563 7.92523438 -9.74703125 7.85046875 -9.1015625 7.7734375 C-6.59401809 7.37001553 -4.36502817 6.93390509 -2 6 C-0.30834699 3.01716843 -0.30834699 3.01716843 0 0 Z " fill="#B4DAF0" transform="translate(56,30)"/>
<path d="M0 0 C0.99 0 1.98 0 3 0 C2.25 4.75 2.25 4.75 0 7 C0.99 7.66 1.98 8.32 3 9 C1.02 9.33 -0.96 9.66 -3 10 C-3 9.34 -3 8.68 -3 8 C-4.65 8 -6.3 8 -8 8 C-8.33 7.34 -8.66 6.68 -9 6 C-7.9275 6.103125 -6.855 6.20625 -5.75 6.3125 C-1.85789852 6.40072402 -1.85789852 6.40072402 0.4375 3.5 C0.953125 2.675 1.46875 1.85 2 1 C1.34 0.67 0.68 0.34 0 0 Z " fill="#ACC87E" transform="translate(142,127)"/>
<path d="M0 0 C0.99 0.495 0.99 0.495 2 1 C2.59765625 3.87109375 2.59765625 3.87109375 3.0625 7.4375 C3.54058704 11.86703702 3.54058704 11.86703702 5 16 C4.67 16.99 4.34 17.98 4 19 C3.01 19 2.02 19 1 19 C1.01740234 17.57107422 1.01740234 17.57107422 1.03515625 16.11328125 C1.04417969 14.85902344 1.05320312 13.60476562 1.0625 12.3125 C1.07410156 11.07113281 1.08570312 9.82976563 1.09765625 8.55078125 C1.01478673 5.53764546 0.70839449 2.91724661 0 0 Z " fill="#CBDBEB" transform="translate(89,33)"/>
<path d="M0 0 C7.5 -0.375 7.5 -0.375 12 3 C7.71 3 3.42 3 -1 3 C-0.67 2.01 -0.34 1.02 0 0 Z " fill="#DFEFF8" transform="translate(62,39)"/>
<path d="M0 0 C0.78375 0.04125 1.5675 0.0825 2.375 0.125 C2.375 0.785 2.375 1.445 2.375 2.125 C0.725 2.785 -0.925 3.445 -2.625 4.125 C-2.955 8.085 -3.285 12.045 -3.625 16.125 C-3.955 16.125 -4.285 16.125 -4.625 16.125 C-4.67884521 13.83358714 -4.71772087 11.54181812 -4.75 9.25 C-4.77320312 7.97382812 -4.79640625 6.69765625 -4.8203125 5.3828125 C-4.58068665 1.38585332 -4.11348722 0.19588034 0 0 Z " fill="#689DCD" transform="translate(98.625,29.875)"/>
<path d="M0 0 C0.33 0 0.66 0 1 0 C1.25 7.625 1.25 7.625 -1 11 C-1.99 8.03 -2.98 5.06 -4 2 C-2.68 2 -1.36 2 0 2 C0 1.34 0 0.68 0 0 Z " fill="#9EC8E6" transform="translate(102,32)"/>
<path d="M0 0 C4.75 1.875 4.75 1.875 7 3 C7 3.66 7 4.32 7 5 C-1.57142857 4.14285714 -1.57142857 4.14285714 -5 2 C-3.35 1.67 -1.7 1.34 0 1 C0 0.67 0 0.34 0 0 Z " fill="#719148" transform="translate(193,83)"/>
<path d="M0 0 C2.84326464 -0.23053497 4.46145349 -0.35903101 6.875 1.25 C8 3 8 3 7.6875 5.1875 C7.460625 5.785625 7.23375 6.38375 7 7 C6.67 6.01 6.34 5.02 6 4 C3.03 3.505 3.03 3.505 0 3 C0 2.01 0 1.02 0 0 Z " fill="#A0D0ED" transform="translate(80,30)"/>
<path d="M0 0 C2.97 0.495 2.97 0.495 6 1 C4.8553125 1.8971875 4.8553125 1.8971875 3.6875 2.8125 C0.49608573 5.41016278 -1.7151483 7.57272246 -4 11 C-3.25 6.25 -3.25 6.25 -1 4 C-0.3574765 1.93125966 -0.3574765 1.93125966 0 0 Z " fill="#E4ECD7" transform="translate(107,126)"/>
<path d="M0 0 C0.99 0 1.98 0 3 0 C3 1.32 3 2.64 3 4 C5.31 4.66 7.62 5.32 10 6 C7.09905209 7.45047396 5.44027404 6.45356803 2.375 5.5625 C1.37210937 5.27503906 0.36921875 4.98757812 -0.6640625 4.69140625 C-1.82035156 4.34916016 -1.82035156 4.34916016 -3 4 C-2.01 3.67 -1.02 3.34 0 3 C0 2.01 0 1.02 0 0 Z " fill="#95B4BB" transform="translate(93,49)"/>
<path d="M0 0 C0.66 0 1.32 0 2 0 C2 0.66 2 1.32 2 2 C3.32 2.33 4.64 2.66 6 3 C3.69 3.66 1.38 4.32 -1 5 C-1.33 6.65 -1.66 8.3 -2 10 C-2.99 8.68 -3.98 7.36 -5 6 C-3.38405168 3.95880212 -1.7143618 1.95927063 0 0 Z " fill="#B9D093" transform="translate(133,118)"/>
<path d="M0 0 C0.99 0.495 0.99 0.495 2 1 C3.28571429 7.42857143 3.28571429 7.42857143 2 10 C1.34 10 0.68 10 0 10 C0 6.7 0 3.4 0 0 Z " fill="#7CBCE3" transform="translate(98,36)"/>
<path d="M0 0 C2.97 0.99 5.94 1.98 9 3 C9 3.33 9 3.66 9 4 C5.37 4 1.74 4 -2 4 C-1.34 2.68 -0.68 1.36 0 0 Z " fill="#DDEEF8" transform="translate(72,15)"/>
<path d="M0 0 C0.66 0.33 1.32 0.66 2 1 C-3.0940919 6.88183807 -3.0940919 6.88183807 -6.875 7.375 C-7.57625 7.25125 -8.2775 7.1275 -9 7 C-8.67 6.34 -8.34 5.68 -8 5 C-7.01 5.33 -6.02 5.66 -5 6 C-4.731875 5.38125 -4.46375 4.7625 -4.1875 4.125 C-3 2 -3 2 0 0 Z " fill="#8FAB6B" transform="translate(108,10)"/>
<path d="M0 0 C1.65 0 3.3 0 5 0 C5 1.32 5 2.64 5 4 C3.68 4.33 2.36 4.66 1 5 C0.67 3.35 0.34 1.7 0 0 Z " fill="#BCDEF1" transform="translate(111,47)"/>
<path d="M0 0 C0.66 0.66 1.32 1.32 2 2 C-4.625 1.25 -4.625 1.25 -8 -1 C-4.34765818 -2.21744727 -3.37046678 -1.64202228 0 0 Z " fill="#DBE3D1" transform="translate(179,74)"/>
</svg>
