<svg version="1.1" id="Layer_1" xmlns="http://www.w3.org/2000/svg" xmlns:xlink="http://www.w3.org/1999/xlink" x="0px" y="0px" width="100%" viewBox="0 0 256 256" xml:space="preserve">

<path fill="#484948" opacity="1.000000" stroke="none" d="
M168.562515,213.103027 
	C184.474533,222.052719 188.449341,238.578278 177.895447,253.983307 
	C177.000580,255.280472 176.500290,256.140228 176.000000,257.000000 
	C162.312439,257.000000 148.624878,257.000000 134.414612,256.641083 
	C133.535645,256.264465 133.179382,256.246765 132.823120,256.229065 
	C132.882080,256.486053 132.941040,256.743011 133.000000,257.000000 
	C133.000000,257.000000 132.500000,257.000000 132.250000,257.000000 
	C131.959122,255.868073 132.253876,254.575958 131.806274,253.638168 
	C130.922577,251.786743 129.627777,250.131561 128.283966,247.703369 
	C127.894981,246.039993 127.783470,245.053925 127.546242,244.099106 
	C124.004707,229.844269 133.801834,214.777908 146.892365,211.346130 
	C154.593140,209.327347 161.477692,210.886093 168.562515,213.103027 
M151.466827,220.690247 
	C149.916260,221.278992 148.306442,221.747406 146.825256,222.477005 
	C139.949661,225.863754 135.797745,233.968735 137.476379,240.572617 
	C139.665482,249.184769 146.939651,254.323593 156.478256,253.996460 
	C164.330261,253.727158 170.795593,248.197021 172.140396,240.599808 
	C174.274185,228.545334 165.427551,219.594650 151.466827,220.690247 
z" data-index="1" style="opacity: 1;"></path>
<path fill="#F0F0F0" opacity="1.000000" stroke="none" d="
M176.333328,257.000000 
	C176.500290,256.140228 177.000580,255.280472 177.789337,254.316132 
	C178.055923,254.908554 178.034073,255.605560 178.006104,256.651306 
	C177.555557,257.000000 177.111099,257.000000 176.333328,257.000000 
z" data-index="2"></path>
<path fill="#F0F0F0" opacity="1.000000" stroke="none" d="
M256.500000,257.000000 
	C256.097504,256.674469 256.283081,256.411011 256.778381,256.104797 
	C257.000000,256.333344 257.000000,256.666656 256.500000,257.000000 
z" data-index="3"></path>
<path fill="#EFEFEF" opacity="1.000000" stroke="none" d="
M133.250000,257.000000 
	C132.941040,256.743011 132.882080,256.486053 132.823120,256.229065 
	C133.179382,256.246765 133.535645,256.264465 133.945953,256.641083 
	C134.000000,257.000000 133.500000,257.000000 133.250000,257.000000 
z" data-index="4"></path>
<path fill="#EFEFEF" opacity="1.000000" stroke="none" d="
M2.250001,257.000000 
	C2.269417,256.874878 2.538832,256.749725 2.904123,256.812286 
	C3.000000,257.000000 2.500000,257.000000 2.250001,257.000000 
z" data-index="5"></path>
<path fill="#F4F4F4" opacity="1.000000" stroke="none" d="
M257.000000,1.500000 
	C256.672394,1.905701 256.409912,1.719581 256.106262,1.220821 
	C256.333344,1.000000 256.666656,1.000000 257.000000,1.500000 
z" data-index="6"></path>
<path fill="#EFEFEF" opacity="1.000000" stroke="none" d="
M2.750000,1.000000 
	C2.687899,1.138878 2.375798,1.277756 2.031848,1.208317 
	C2.000000,1.000000 2.500000,1.000000 2.750000,1.000000 
z" data-index="7"></path>
<path fill="#97BB59" opacity="1.000000" stroke="none" d="
M45.012550,186.977539 
	C51.853767,163.009094 58.757156,139.058136 65.506165,115.063751 
	C68.276100,105.215935 70.398567,95.319344 65.267570,85.424232 
	C64.634079,84.202545 65.157181,82.176338 65.582382,80.644539 
	C67.894371,72.315575 70.343781,64.024750 73.219017,55.509224 
	C74.942162,55.741722 76.167450,56.279758 77.445816,56.616138 
	C109.669022,65.095116 141.896347,73.558441 174.126572,82.010796 
	C183.078140,84.358337 192.041168,86.662262 201.217407,89.253815 
	C203.278244,90.324898 205.120590,91.128372 206.962952,91.931847 
	C201.910156,110.184273 197.034607,128.488159 191.755600,146.674911 
	C186.285721,165.519180 180.488007,184.269592 174.656326,203.005859 
	C173.912445,205.395844 174.967087,209.676529 169.522491,208.777634 
	C167.476868,207.662415 166.032257,206.517563 164.403122,206.109589 
	C154.760986,203.694962 145.639557,205.257614 136.605408,210.081696 
	C134.717606,209.842346 133.215988,209.768784 131.792480,209.396500 
	C112.779221,204.424301 93.787621,199.369034 74.767426,194.423660 
	C64.872704,191.850983 54.932308,189.453934 45.012550,186.977539 
M131.324158,123.221260 
	C131.532623,126.714142 131.741089,130.207016 131.947113,133.658905 
	C140.430191,136.161255 140.430191,136.161255 145.288284,129.799896 
	C144.095947,128.011612 143.281281,126.081429 141.861618,124.847038 
	C140.234726,123.432449 138.172134,122.278824 136.105698,121.692039 
	C134.666046,121.283241 132.901123,122.019981 131.926849,121.789467 
	C131.839371,121.084770 132.022324,120.064301 131.623688,119.722916 
	C125.988411,114.896774 120.041374,116.771423 115.388008,124.761314 
	C122.467720,132.645691 122.463745,132.642395 128.917099,124.852875 
	C129.651230,123.966736 130.460693,123.143013 131.324158,123.221260 
M111.493607,142.330276 
	C113.697403,140.327240 115.901192,138.324203 118.377037,136.073898 
	C116.704353,128.076477 116.704353,128.076477 108.993706,127.461380 
	C107.460495,129.751999 105.400681,131.718353 104.777405,134.066086 
	C104.125389,136.522064 104.854240,139.344666 104.900833,142.811813 
	C105.260742,144.430466 105.584854,146.058060 105.987358,147.666061 
	C107.152550,152.320999 110.949654,155.151199 116.335457,155.035950 
	C121.190094,154.932053 119.262573,150.264359 120.774727,147.888947 
	C121.069641,147.425674 120.817154,146.613922 120.817154,145.343399 
	C117.719444,144.608200 114.546455,143.855118 111.493607,142.330276 
M136.867126,158.363861 
	C139.701385,155.963181 142.625351,153.659393 145.348572,151.138748 
	C149.277725,147.501877 149.779907,143.703827 146.817551,138.674316 
	C144.402390,134.573868 141.644516,138.742966 139.035110,138.712677 
	C138.112015,138.701950 137.182495,139.243423 135.853317,139.658524 
	C136.703918,143.251587 137.511505,146.662918 138.455917,150.652252 
	C134.909973,149.052094 132.161697,147.811890 129.399078,146.565231 
	C122.746040,152.408966 122.746040,152.408966 126.282066,159.652359 
	C129.771530,159.371048 133.036209,159.107849 136.867126,158.363861 
z" data-index="8" style="opacity: 1;"></path>
<path fill="#799C4A" opacity="1.000000" stroke="none" d="
M44.904236,187.351440 
	C54.932308,189.453934 64.872704,191.850983 74.767426,194.423660 
	C93.787621,199.369034 112.779221,204.424301 131.792480,209.396500 
	C133.215988,209.768784 134.717606,209.842346 136.441498,210.365784 
	C134.107101,212.977203 131.338013,215.109695 128.954285,217.609650 
	C121.933067,224.973221 119.526665,239.808807 124.004135,247.042847 
	C122.510483,247.196487 120.905579,247.785843 119.540192,247.437180 
	C103.829277,243.425308 88.161026,239.246796 72.467545,235.166016 
	C65.683563,233.401993 60.671165,229.191727 56.730576,223.668732 
	C49.074932,212.938873 43.562241,201.435547 44.904236,187.351440 
z" data-index="9"></path>
<path fill="#7B9D4D" opacity="1.000000" stroke="none" d="
M207.290009,91.827637 
	C205.120590,91.128372 203.278244,90.324898 201.162704,88.911087 
	C192.932709,84.212349 184.975891,80.123940 177.042786,75.670654 
	C174.780136,73.292542 172.730408,70.892487 170.170502,69.326324 
	C146.481842,54.833504 122.723015,40.454826 98.922615,26.146036 
	C96.851166,24.900681 94.337547,24.390812 91.903702,23.335606 
	C91.291443,22.737043 90.804779,22.342186 90.318123,21.947330 
	C87.644691,19.809835 84.971268,17.672338 81.927231,15.238525 
	C83.401947,12.980948 84.908768,10.674215 86.673805,7.972202 
	C92.155426,11.200333 97.388176,14.281898 102.507324,17.296564 
	C111.292496,8.474718 114.802704,8.067463 125.388588,14.491607 
	C148.713623,28.646618 172.023880,42.826012 195.339432,56.996647 
	C204.501450,62.565094 205.733917,66.517525 201.137344,76.850693 
	C202.914047,78.057632 204.766190,79.346397 206.650146,80.586838 
	C208.440140,81.765396 210.263397,82.893425 212.780838,84.494453 
	C210.961487,87.041443 209.289276,89.382439 207.290009,91.827637 
z" data-index="10" style="opacity: 1;"></path>
<path fill="#668447" opacity="1.000000" stroke="none" d="
M177.019073,76.035530 
	C184.975891,80.123940 192.932709,84.212349 200.944229,88.643478 
	C192.041168,86.662262 183.078140,84.358337 174.126572,82.010796 
	C141.896347,73.558441 109.669022,65.095116 77.445816,56.616138 
	C76.167450,56.279758 74.942162,55.741722 73.348206,55.156143 
	C73.461189,53.150013 73.918098,51.285381 74.490021,48.951412 
	C78.629250,49.940830 82.400650,50.842323 86.750519,52.045246 
	C88.485725,52.493919 89.642471,52.641163 91.136200,53.001892 
	C92.236725,53.151680 93.000252,53.087990 93.971283,53.259247 
	C94.763077,53.690598 95.347374,53.886993 96.195618,54.340019 
	C123.312729,61.742943 150.165909,68.889236 177.019073,76.035530 
z" data-index="11" style="opacity: 1;"></path>
<path fill="#627E45" opacity="1.000000" stroke="none" d="
M124.344765,247.109070 
	C119.526665,239.808807 121.933067,224.973221 128.954285,217.609650 
	C131.338013,215.109695 134.107101,212.977203 136.863983,210.392731 
	C145.639557,205.257614 154.760986,203.694962 164.403122,206.109589 
	C166.032257,206.517563 167.476868,207.662415 169.128784,208.836578 
	C169.032822,210.241745 168.814804,211.277176 168.579651,212.707809 
	C161.477692,210.886093 154.593140,209.327347 146.892365,211.346130 
	C133.801834,214.777908 124.004707,229.844269 127.546242,244.099106 
	C127.783470,245.053925 127.894981,246.039993 128.060394,247.430206 
	C126.932350,247.624359 125.808876,247.399811 124.344765,247.109070 
z" data-index="12"></path>
<path fill="#5D98CA" opacity="1.000000" stroke="none" d="
M90.799210,52.788410 
	C89.642471,52.641163 88.485725,52.493919 87.122711,52.059570 
	C83.931931,47.542480 81.153397,43.144390 77.888145,39.143528 
	C75.823807,36.614140 72.176468,34.669765 74.540367,30.887484 
	C76.789230,27.289263 80.540001,27.273342 84.628181,29.131218 
	C84.976456,29.545244 84.991615,29.984959 84.587952,29.986740 
	C82.228592,30.835629 80.272896,31.682735 78.317207,32.529842 
	C79.394867,34.121601 80.320312,35.847954 81.583046,37.276081 
	C83.947098,39.949772 86.506607,42.450642 89.023369,45.362595 
	C89.823166,46.479221 90.584396,47.256649 91.318855,48.436287 
	C91.127792,50.155136 90.963501,51.471771 90.799210,52.788410 
z" data-index="13"></path>
<path fill="#7DBFE5" opacity="1.000000" stroke="none" d="
M88.984810,45.023399 
	C86.506607,42.450642 83.947098,39.949772 81.583046,37.276081 
	C80.320312,35.847954 79.394867,34.121601 78.317207,32.529842 
	C80.272896,31.682735 82.228592,30.835629 84.607971,30.266552 
	C85.757324,30.668833 86.483002,30.793083 87.208672,30.917334 
	C87.508484,30.968264 87.744164,31.119274 87.969818,31.971802 
	C88.717621,33.687229 89.411331,34.801220 90.097534,35.924915 
	C90.090019,35.934620 90.072586,35.951889 90.047348,36.393948 
	C89.676338,39.565136 89.330574,42.294270 88.984810,45.023399 
z" data-index="14"></path>
<path fill="#8AC7E9" opacity="1.000000" stroke="none" d="
M55.939285,36.163528 
	C56.469608,35.124077 56.847424,34.396255 57.227192,33.664665 
	C59.653320,36.405628 62.004139,39.061516 64.201668,41.544220 
	C62.019047,43.542763 59.697098,45.668877 57.333183,47.833420 
	C56.371441,46.543961 55.336819,44.493519 53.711601,43.166256 
	C52.119499,41.866039 49.926048,41.302166 48.607220,40.695858 
	C50.781952,39.417381 53.284367,37.946270 55.939285,36.163528 
z" data-index="15"></path>
<path fill="#DEE8F1" opacity="1.000000" stroke="none" d="
M91.136200,53.001892 
	C90.963501,51.471771 91.127792,50.155136 91.544556,48.111107 
	C91.222214,43.573109 90.647400,39.762501 90.072586,35.951889 
	C90.072586,35.951889 90.090019,35.934620 90.129166,35.569633 
	C90.064743,34.498901 89.961182,33.793159 89.857620,33.087421 
	C90.367912,33.062866 90.878212,33.038311 91.997467,33.088425 
	C93.256882,32.699657 93.907326,32.236217 94.768105,31.933979 
	C95.091156,32.231224 95.203873,32.367264 95.241486,32.919174 
	C94.698845,39.898132 94.231308,46.461212 93.763779,53.024296 
	C93.000252,53.087990 92.236725,53.151680 91.136200,53.001892 
z" data-index="16"></path>
<path fill="#80B3DB" opacity="1.000000" stroke="none" d="
M94.557770,31.772774 
	C93.907326,32.236217 93.256882,32.699657 92.380432,33.074425 
	C89.727310,30.166130 87.300179,27.346514 84.333664,23.900280 
	C86.587006,23.343470 88.195282,22.946056 90.060837,22.247986 
	C90.804779,22.342186 91.291443,22.737043 91.942703,23.716412 
	C92.924133,26.791542 93.740952,29.282158 94.557770,31.772774 
z" data-index="17"></path>
<path fill="#9ED0ED" opacity="1.000000" stroke="none" d="
M65.647903,15.054176 
	C68.058510,14.040616 70.136383,13.036185 71.912750,12.177499 
	C73.218765,14.148746 74.729515,16.429012 76.048767,18.420233 
	C74.333260,19.217813 71.919281,20.340134 69.920631,21.269354 
	C68.346130,19.698771 66.415924,17.774624 64.488663,15.847522 
	C64.381470,15.740334 64.298698,15.608712 64.204567,15.488461 
	C64.574760,15.346742 64.944962,15.205025 65.647903,15.054176 
z" data-index="18"></path>
<path fill="#78B2DB" opacity="1.000000" stroke="none" d="
M89.618713,32.943474 
	C89.961182,33.793159 90.064743,34.498901 90.136673,35.559929 
	C89.411331,34.801220 88.717621,33.687229 88.044823,32.172874 
	C88.503754,32.114849 88.941780,32.457184 89.618713,32.943474 
z" data-index="19"></path>
<path fill="#78B2DB" opacity="1.000000" stroke="none" d="
M87.058945,30.657288 
	C86.483002,30.793083 85.757324,30.668833 85.011635,30.264771 
	C84.991615,29.984959 84.976456,29.545244 84.974823,29.325581 
	C85.618530,29.536360 86.263878,29.966801 87.058945,30.657288 
z" data-index="20"></path>
<path fill="#B9B8B8" opacity="1.000000" stroke="none" d="
M151.856079,220.580505 
	C165.427551,219.594650 174.274185,228.545334 172.140396,240.599808 
	C170.795593,248.197021 164.330261,253.727158 156.478256,253.996460 
	C146.939651,254.323593 139.665482,249.184769 137.476379,240.572617 
	C135.797745,233.968735 139.949661,225.863754 146.825256,222.477005 
	C148.306442,221.747406 149.916260,221.278992 151.856079,220.580505 
M164.483261,244.859467 
	C164.837296,244.298996 165.209106,243.748886 165.542526,243.176407 
	C168.034271,238.898010 167.699142,233.861267 164.689468,230.226700 
	C161.167206,225.973114 155.466049,224.482666 150.257126,226.453674 
	C145.864410,228.115814 142.840622,232.502075 142.939148,237.263580 
	C143.035706,241.931229 144.942215,245.560013 149.280197,247.680573 
	C154.698959,250.329483 159.547012,249.260620 164.483261,244.859467 
z" data-index="21" style="opacity: 1;"></path>
<path fill="#F5F8F0" opacity="1.000000" stroke="none" d="
M136.584015,158.604248 
	C133.036209,159.107849 129.771530,159.371048 126.282066,159.652359 
	C122.746040,152.408966 122.746040,152.408966 129.399078,146.565231 
	C132.161697,147.811890 134.909973,149.052094 138.455917,150.652252 
	C137.511505,146.662918 136.703918,143.251587 135.853317,139.658524 
	C137.182495,139.243423 138.112015,138.701950 139.035110,138.712677 
	C141.644516,138.742966 144.402390,134.573868 146.817551,138.674316 
	C149.779907,143.703827 149.277725,147.501877 145.348572,151.138748 
	C142.625351,153.659393 139.701385,155.963181 136.584015,158.604248 
z" data-index="22"></path>
<path fill="#F6F9F1" opacity="1.000000" stroke="none" d="
M104.979500,142.006989 
	C104.854240,139.344666 104.125389,136.522064 104.777405,134.066086 
	C105.400681,131.718353 107.460495,129.751999 108.993706,127.461380 
	C116.704353,128.076477 116.704353,128.076477 118.377037,136.073898 
	C115.901192,138.324203 113.697403,140.327240 111.102142,142.660187 
	C108.800285,142.662415 106.889893,142.334702 104.979500,142.006989 
z" data-index="23"></path>
<path fill="#F7F9F3" opacity="1.000000" stroke="none" d="
M131.281494,122.244995 
	C132.901123,122.019981 134.666046,121.283241 136.105698,121.692039 
	C138.172134,122.278824 140.234726,123.432449 141.861618,124.847038 
	C143.281281,126.081429 144.095947,128.011612 145.288284,129.799896 
	C140.430191,136.161255 140.430191,136.161255 131.947113,133.658905 
	C131.741089,130.207016 131.532623,126.714142 131.282883,122.748650 
	C131.241608,122.276039 131.281494,122.244995 131.281494,122.244995 
z" data-index="24"></path>
<path fill="#F6F9F2" opacity="1.000000" stroke="none" d="
M104.940170,142.409393 
	C106.889893,142.334702 108.800285,142.662415 111.042068,143.046082 
	C114.546455,143.855118 117.719444,144.608200 120.817154,145.343399 
	C120.817154,146.613922 121.069641,147.425674 120.774727,147.888947 
	C119.262573,150.264359 121.190094,154.932053 116.335457,155.035950 
	C110.949654,155.151199 107.152550,152.320999 105.987358,147.666061 
	C105.584854,146.058060 105.260742,144.430466 104.940170,142.409393 
z" data-index="25"></path>
<path fill="#F9FBF6" opacity="1.000000" stroke="none" d="
M131.604172,122.017227 
	C131.281494,122.244995 131.241608,122.276039 131.238403,122.283195 
	C130.460693,123.143013 129.651230,123.966736 128.917099,124.852875 
	C122.463745,132.642395 122.467720,132.645691 115.388008,124.761314 
	C120.041374,116.771423 125.988411,114.896774 131.623688,119.722916 
	C132.022324,120.064301 131.839371,121.084770 131.604172,122.017227 
z" data-index="26"></path>

<path fill="#70A9D5" opacity="1.000000" stroke="none" d="
M95.241486,32.919174 
	C97.219421,31.987230 99.743698,30.483677 100.874062,31.195051 
	C102.426750,32.172199 103.660194,34.797771 103.738647,36.768436 
	C104.004097,43.437145 100.162651,48.526394 96.112900,53.789757 
	C95.347374,53.886993 94.763077,53.690598 93.971283,53.259247 
	C94.231308,46.461212 94.698845,39.898132 95.241486,32.919174 
z" data-index="28"></path>
<path fill="#78B2DB" opacity="1.000000" stroke="none" d="
M90.047348,36.393948 
	C90.647400,39.762501 91.222214,43.573109 91.571335,47.708897 
	C90.584396,47.256649 89.823166,46.479221 89.023369,45.362595 
	C89.330574,42.294270 89.676338,39.565136 90.047348,36.393948 
z" data-index="29"></path>
<path fill="#F8F8F8" opacity="1.000000" stroke="none" d="
M164.230103,245.149170 
	C159.547012,249.260620 154.698959,250.329483 149.280197,247.680573 
	C144.942215,245.560013 143.035706,241.931229 142.939148,237.263580 
	C142.840622,232.502075 145.864410,228.115814 150.257126,226.453674 
	C155.466049,224.482666 161.167206,225.973114 164.689468,230.226700 
	C167.699142,233.861267 168.034271,238.898010 165.542526,243.176407 
	C165.209106,243.748886 164.837296,244.298996 164.230103,245.149170 
M158.092560,234.176926 
	C155.852432,234.364227 153.470688,234.193146 151.469025,234.984009 
	C150.951065,235.188660 150.968277,238.997513 151.936646,240.076126 
	C152.888779,241.136642 155.662231,241.562439 157.103012,240.969803 
	C159.870712,239.831421 160.178543,237.325928 158.092560,234.176926 
z" data-index="30"></path>
<path fill="#383836" opacity="1.000000" stroke="none" d="
M158.319183,234.462250 
	C160.178543,237.325928 159.870712,239.831421 157.103012,240.969803 
	C155.662231,241.562439 152.888779,241.136642 151.936646,240.076126 
	C150.968277,238.997513 150.951065,235.188660 151.469025,234.984009 
	C153.470688,234.193146 155.852432,234.364227 158.319183,234.462250 
z" data-index="31" style="opacity: 1;"></path>
</svg>